<?xml version="1.0" encoding="utf-8"?>
<!-- Generator: Adobe Illustrator 19.1.1, SVG Export Plug-In . SVG Version: 6.00 Build 0)  -->
<svg version="1.0" id="Layer_1" xmlns="http://www.w3.org/2000/svg" xmlns:xlink="http://www.w3.org/1999/xlink" x="0px" y="0px"
	 viewBox="0 0 67.2 58.3" style="enable-background:new 0 0 67.2 58.3;" xml:space="preserve">
<style type="text/css">
	.st0{fill:#FAA720;}
	.st1{fill:none;stroke:#010101;}
	.st2{fill:#FFFFFF;}
	.st3{fill:none;stroke:#ABABAB;}
</style>
<path class="st0" d="M0.5,49.3V9c0-2.3,0.8-4.4,2.5-6c1.7-1.7,3.7-2.5,6-2.5h49.2c2.3,0,4.4,0.8,6,2.5c1.7,1.7,2.5,3.7,2.5,6v40.3
	c0,2.3-0.8,4.4-2.5,6c-1.7,1.7-3.7,2.5-6,2.5H9c-2.3,0-4.4-0.8-6-2.5S0.5,51.6,0.5,49.3z"/>
<path class="st1" d="M0.5,49.3V9c0-2.3,0.8-4.4,2.5-6c1.7-1.7,3.7-2.5,6-2.5h49.2c2.3,0,4.4,0.8,6,2.5c1.7,1.7,2.5,3.7,2.5,6v40.3
	c0,2.3-0.8,4.4-2.5,6c-1.7,1.7-3.7,2.5-6,2.5H9c-2.3,0-4.4-0.8-6-2.5S0.5,51.6,0.5,49.3z"/>
<rect x="11.8" y="31" class="st2" width="43.7" height="19.1"/>
<rect x="11.8" y="31" class="st1" width="43.7" height="19.1"/>
<rect x="11.8" y="40.6" class="st2" width="43.7" height="6.8"/>
<rect x="11.8" y="40.6" class="st1" width="43.7" height="6.8"/>
<rect x="11.8" y="9.5" class="st2" width="43.7" height="35.3"/>
<rect x="11.8" y="9.5" class="st1" width="43.7" height="35.3"/>
<line class="st3" x1="19.6" y1="25.3" x2="49.9" y2="25.3"/>
<line class="st3" x1="19.6" y1="32.8" x2="49.9" y2="32.8"/>
<line class="st3" x1="19.6" y1="40.4" x2="49.9" y2="40.4"/>
<line class="st3" x1="19.6" y1="17.8" x2="49.9" y2="17.8"/>
<polyline class="st3" points="19.6,17.4 19.6,23.9 19.6,40.5 "/>
<line class="st3" x1="34.6" y1="17.4" x2="34.6" y2="40.5"/>
<line class="st3" x1="42.1" y1="17.4" x2="42.1" y2="40.5"/>
<line class="st3" x1="27.1" y1="17.4" x2="27.1" y2="40.5"/>
<line class="st3" x1="49.6" y1="17.4" x2="49.6" y2="40.5"/>
</svg>
