<?xml version="1.0" encoding="utf-8"?>
<!-- Generator: Adobe Illustrator 19.1.1, SVG Export Plug-In . SVG Version: 6.00 Build 0)  -->
<svg version="1.1" id="Layer_1" xmlns="http://www.w3.org/2000/svg" xmlns:xlink="http://www.w3.org/1999/xlink" x="0px" y="0px"
	 viewBox="0 0 59.1 58.3" style="enable-background:new 0 0 59.1 58.3;" xml:space="preserve">
<style type="text/css">
	.st0{fill:#FFD74C;}
	.st1{fill:none;stroke:#010101;stroke-width:0.9217;stroke-miterlimit:10;}
	.st2{fill:#FFFFFF;}
	.st3{fill:none;stroke:#010101;stroke-linecap:round;stroke-linejoin:round;stroke-miterlimit:10;}
	.st4{fill:none;stroke:#ACACAC;stroke-linecap:round;stroke-linejoin:round;stroke-miterlimit:10;}
	.st5{fill:#FAA720;}
</style>
<path class="st0" d="M12.5,57.5h41.7c2.4,0,4.4-2,4.4-4.4l0.1-32.8c0-2.4-2-4.4-4.4-4.4H12.6c-2.4,0-4.4,2-4.4,4.4L8.1,53.2
	C8.1,55.6,10.1,57.5,12.5,57.5z"/>
<path class="st1" d="M12.5,57.5h41.7c2.4,0,4.4-2,4.4-4.4l0.1-32.8c0-2.4-2-4.4-4.4-4.4H12.6c-2.4,0-4.4,2-4.4,4.4L8.1,53.2
	C8.1,55.6,10.1,57.5,12.5,57.5z"/>
<rect x="5.4" y="9.8" class="st2" width="39.6" height="48"/>
<rect x="5.4" y="9.8" class="st3" width="39.6" height="48"/>
<line class="st4" x1="16.1" y1="19.6" x2="35.7" y2="19.6"/>
<line class="st4" x1="16.1" y1="25.9" x2="35.7" y2="25.9"/>
<line class="st4" x1="16.1" y1="32.4" x2="35.7" y2="32.4"/>
<line class="st4" x1="16.1" y1="38.7" x2="35.7" y2="38.7"/>
<rect x="9.2" y="5.1" class="st2" width="39.6" height="48"/>
<rect x="9.2" y="5.1" class="st3" width="39.6" height="48"/>
<line class="st4" x1="19.9" y1="14.9" x2="39.5" y2="14.9"/>
<line class="st4" x1="19.9" y1="21.2" x2="39.5" y2="21.2"/>
<line class="st4" x1="19.9" y1="27.6" x2="39.5" y2="27.6"/>
<line class="st4" x1="19.9" y1="34" x2="39.5" y2="34"/>
<rect x="13.2" y="0.5" class="st2" width="39.6" height="48"/>
<rect x="13.2" y="0.5" class="st3" width="39.6" height="48"/>
<line class="st4" x1="23.9" y1="10.3" x2="43.5" y2="10.3"/>
<line class="st4" x1="23.9" y1="16.6" x2="43.5" y2="16.6"/>
<line class="st4" x1="23.9" y1="23.1" x2="43.5" y2="23.1"/>
<line class="st4" x1="23.9" y1="29.4" x2="43.5" y2="29.4"/>
<path class="st5" d="M54.2,24.8H20.9v-1.7c0-2.2-1.9-4-4-4H4.5c-2.2,0-4,1.9-4,4v22.1c0,0.3,0.1,0.7,0.1,1v7c0,2.4,2,4.4,4.4,4.4
	h49.3c2.4,0,4.4-2,4.4-4.4v-24C58.6,26.8,56.6,24.8,54.2,24.8z"/>
<path class="st1" d="M54.2,24.8H20.9v-1.7c0-2.2-1.9-4-4-4H4.5c-2.2,0-4,1.9-4,4v22.1c0,0.3,0.1,0.7,0.1,1v7c0,2.4,2,4.4,4.4,4.4
	h49.3c2.4,0,4.4-2,4.4-4.4v-24C58.6,26.8,56.6,24.8,54.2,24.8z"/>
</svg>
