<?xml version="1.0" encoding="utf-8"?>
<!-- Generator: Adobe Illustrator 19.1.1, SVG Export Plug-In . SVG Version: 6.00 Build 0)  -->
<svg version="1.1" id="Layer_1" xmlns="http://www.w3.org/2000/svg" xmlns:xlink="http://www.w3.org/1999/xlink" x="0px" y="0px"
	 viewBox="0 0 75 62.2" style="enable-background:new 0 0 75 62.2;" xml:space="preserve">
<style type="text/css">
	.st0{clip-path:url(#SVGID_2_);}
	.st1{clip-path:url(#SVGID_4_);fill:#FEE200;}
	.st2{clip-path:url(#SVGID_6_);}
	.st3{clip-path:url(#SVGID_8_);enable-background:new    ;}
	.st4{clip-path:url(#SVGID_10_);}
	.st5{clip-path:url(#SVGID_12_);}
	.st6{clip-path:url(#SVGID_14_);fill:#FEE200;}
	.st7{clip-path:url(#SVGID_16_);}
	.st8{clip-path:url(#SVGID_18_);fill:#FEE200;}
	.st9{clip-path:url(#SVGID_20_);}
	.st10{clip-path:url(#SVGID_22_);fill:#FFFFFF;}
	.st11{fill:none;stroke:#030404;stroke-width:0.75;stroke-linecap:round;stroke-linejoin:round;stroke-miterlimit:10;}
	.st12{clip-path:url(#SVGID_24_);}
	.st13{clip-path:url(#SVGID_26_);fill:#FFFFFF;}
	.st14{clip-path:url(#SVGID_28_);}
	.st15{clip-path:url(#SVGID_30_);fill:#FFFFFF;}
	.st16{clip-path:url(#SVGID_32_);}
	.st17{clip-path:url(#SVGID_34_);enable-background:new    ;}
	.st18{clip-path:url(#SVGID_36_);}
	.st19{clip-path:url(#SVGID_38_);}
	.st20{clip-path:url(#SVGID_40_);fill:#FFFFFF;}
	
		.st21{clip-path:url(#SVGID_42_);fill:none;stroke:#030404;stroke-width:0.75;stroke-linecap:round;stroke-linejoin:round;stroke-miterlimit:10;}
	.st22{clip-path:url(#SVGID_44_);}
	.st23{clip-path:url(#SVGID_46_);fill:#FFFFFF;}
	
		.st24{clip-path:url(#SVGID_48_);fill:none;stroke:#030404;stroke-width:0.677;stroke-linecap:round;stroke-linejoin:round;stroke-miterlimit:10;}
	.st25{clip-path:url(#SVGID_50_);}
	.st26{clip-path:url(#SVGID_52_);fill:#FFFFFF;}
	
		.st27{clip-path:url(#SVGID_54_);fill:none;stroke:#030404;stroke-width:0.677;stroke-linecap:round;stroke-linejoin:round;stroke-miterlimit:10;}
	.st28{clip-path:url(#SVGID_56_);}
	.st29{clip-path:url(#SVGID_58_);fill:#FFFFFF;}
	
		.st30{clip-path:url(#SVGID_60_);fill:none;stroke:#030404;stroke-width:0.677;stroke-linecap:round;stroke-linejoin:round;stroke-miterlimit:10;}
</style>
<g>
	<g>
		<defs>
			<circle id="SVGID_1_" cx="33" cy="26.6" r="22.8"/>
		</defs>
		<clipPath id="SVGID_2_">
			<use xlink:href="#SVGID_1_"  style="overflow:visible;"/>
		</clipPath>
		<g class="st0">
			<defs>
				<rect id="SVGID_3_" x="-952" y="-507.5" width="1200" height="877"/>
			</defs>
			<clipPath id="SVGID_4_">
				<use xlink:href="#SVGID_3_"  style="overflow:visible;"/>
			</clipPath>
			<rect x="5.2" y="-1.1" class="st1" width="55.5" height="55.5"/>
		</g>
	</g>
	<g>
		<defs>
			<rect id="SVGID_5_" x="39.5" y="2.6" width="32.4" height="32.4"/>
		</defs>
		<clipPath id="SVGID_6_">
			<use xlink:href="#SVGID_5_"  style="overflow:visible;"/>
		</clipPath>
		<g class="st2">
			<defs>
				<rect id="SVGID_7_" x="-952" y="-507.5" width="1200" height="877"/>
			</defs>
			<clipPath id="SVGID_8_">
				<use xlink:href="#SVGID_7_"  style="overflow:visible;"/>
			</clipPath>
			<g class="st3">
				<g>
					<defs>
						<rect id="SVGID_9_" x="39" y="2.5" width="33" height="33"/>
					</defs>
					<clipPath id="SVGID_10_">
						<use xlink:href="#SVGID_9_"  style="overflow:visible;"/>
					</clipPath>
					<g class="st4">
						<defs>
							<path id="SVGID_11_" d="M39.5,18.8c0,9,7.3,16.2,16.2,16.2c9,0,16.2-7.3,16.2-16.2c0-9-7.3-16.2-16.2-16.2
								C46.8,2.6,39.5,9.9,39.5,18.8"/>
						</defs>
						<clipPath id="SVGID_12_">
							<use xlink:href="#SVGID_11_"  style="overflow:visible;"/>
						</clipPath>
						<g class="st5">
							<defs>
								<rect id="SVGID_13_" x="39" y="2.5" width="33" height="33"/>
							</defs>
							<clipPath id="SVGID_14_">
								<use xlink:href="#SVGID_13_"  style="overflow:visible;"/>
							</clipPath>
							<rect x="34.5" y="-2.4" class="st6" width="42.4" height="42.4"/>
						</g>
					</g>
				</g>
			</g>
		</g>
	</g>
	<g>
		<defs>
			<path id="SVGID_15_" d="M38.9,37.5c0-9.3,7.5-16.8,16.8-16.8c9.3,0,16.8,7.5,16.8,16.8c0,9.3-7.5,16.8-16.8,16.8
				C46.4,54.4,38.9,46.8,38.9,37.5"/>
		</defs>
		<clipPath id="SVGID_16_">
			<use xlink:href="#SVGID_15_"  style="overflow:visible;"/>
		</clipPath>
		<g class="st7">
			<defs>
				<rect id="SVGID_17_" x="-952" y="-507.5" width="1200" height="877"/>
			</defs>
			<clipPath id="SVGID_18_">
				<use xlink:href="#SVGID_17_"  style="overflow:visible;"/>
			</clipPath>
			<rect x="33.9" y="15.7" class="st8" width="43.7" height="43.7"/>
		</g>
	</g>
	<g>
		<defs>
			<path id="SVGID_19_" d="M9.9,37.6L9.9,37.6c0,0.8-0.6,1.4-1.4,1.4l-6.7,0.2c-0.8,0-1.4-0.6-1.4-1.4c0-0.8,0.6-1.4,1.4-1.4
				l6.7-0.2C9.2,36.2,9.9,36.8,9.9,37.6"/>
		</defs>
		<clipPath id="SVGID_20_">
			<use xlink:href="#SVGID_19_"  style="overflow:visible;"/>
		</clipPath>
		<g class="st9">
			<defs>
				<rect id="SVGID_21_" x="-952" y="-507.5" width="1200" height="877"/>
			</defs>
			<clipPath id="SVGID_22_">
				<use xlink:href="#SVGID_21_"  style="overflow:visible;"/>
			</clipPath>
			<rect x="-4.6" y="31.2" class="st10" width="19.5" height="13"/>
		</g>
	</g>
	<path class="st11" d="M9.9,37.6L9.9,37.6c0,0.8-0.6,1.4-1.4,1.4l-6.7,0.2c-0.8,0-1.4-0.6-1.4-1.4c0-0.8,0.6-1.4,1.4-1.4l6.7-0.2
		C9.2,36.2,9.9,36.8,9.9,37.6z"/>
	<g>
		<defs>
			<path id="SVGID_23_" d="M12.9,32.5L12.9,32.5c-0.5,0.6-1.4,0.7-2,0.2l-5.1-4.3c-0.6-0.5-0.7-1.4-0.2-2c0.5-0.6,1.4-0.7,2-0.2
				l5.1,4.3C13.3,31,13.4,31.9,12.9,32.5"/>
		</defs>
		<clipPath id="SVGID_24_">
			<use xlink:href="#SVGID_23_"  style="overflow:visible;"/>
		</clipPath>
		<g class="st12">
			<defs>
				<rect id="SVGID_25_" x="-952" y="-507.5" width="1200" height="877"/>
			</defs>
			<clipPath id="SVGID_26_">
				<use xlink:href="#SVGID_25_"  style="overflow:visible;"/>
			</clipPath>
			<rect x="0.3" y="20.9" class="st13" width="17.9" height="17.1"/>
		</g>
	</g>
	<path class="st11" d="M12.9,32.5L12.9,32.5c-0.5,0.6-1.4,0.7-2,0.2l-5.1-4.3c-0.6-0.5-0.7-1.4-0.2-2c0.5-0.6,1.4-0.7,2-0.2l5.1,4.3
		C13.3,31,13.4,31.9,12.9,32.5z"/>
	<g>
		<defs>
			<path id="SVGID_27_" d="M12.7,42L12.7,42c-0.6-0.5-1.5-0.4-2,0.2l-4.3,5.1c-0.5,0.6-0.4,1.5,0.2,2c0.6,0.5,1.5,0.4,2-0.2l4.3-5.1
				C13.4,43.4,13.3,42.5,12.7,42"/>
		</defs>
		<clipPath id="SVGID_28_">
			<use xlink:href="#SVGID_27_"  style="overflow:visible;"/>
		</clipPath>
		<g class="st14">
			<defs>
				<rect id="SVGID_29_" x="-952" y="-507.5" width="1200" height="877"/>
			</defs>
			<clipPath id="SVGID_30_">
				<use xlink:href="#SVGID_29_"  style="overflow:visible;"/>
			</clipPath>
			<rect x="1.2" y="36.7" class="st15" width="17.1" height="17.9"/>
		</g>
	</g>
	<path class="st11" d="M12.7,42L12.7,42c-0.6-0.5-1.5-0.4-2,0.2l-4.3,5.1c-0.5,0.6-0.4,1.5,0.2,2c0.6,0.5,1.5,0.4,2-0.2l4.3-5.1
		C13.4,43.4,13.3,42.5,12.7,42z"/>
	<g>
		<defs>
			<rect id="SVGID_31_" y="2.6" width="72.6" height="59.6"/>
		</defs>
		<clipPath id="SVGID_32_">
			<use xlink:href="#SVGID_31_"  style="overflow:visible;"/>
		</clipPath>
		<g class="st16">
			<defs>
				<rect id="SVGID_33_" x="-952" y="-507.5" width="1200" height="877"/>
			</defs>
			<clipPath id="SVGID_34_">
				<use xlink:href="#SVGID_33_"  style="overflow:visible;"/>
			</clipPath>
			<g class="st17">
				<g>
					<defs>
						<rect id="SVGID_35_" x="19" y="13.5" width="48" height="49"/>
					</defs>
					<clipPath id="SVGID_36_">
						<use xlink:href="#SVGID_35_"  style="overflow:visible;"/>
					</clipPath>
					<g class="st18">
						<defs>
							<rect id="SVGID_37_" x="20.5" y="14.4" width="35.3" height="47.2"/>
						</defs>
						<clipPath id="SVGID_38_">
							<use xlink:href="#SVGID_37_"  style="overflow:visible;"/>
						</clipPath>
						<g class="st19">
							<defs>
								<rect id="SVGID_39_" x="19" y="13.5" width="48" height="49"/>
							</defs>
							<clipPath id="SVGID_40_">
								<use xlink:href="#SVGID_39_"  style="overflow:visible;"/>
							</clipPath>
							<rect x="15.5" y="9.4" class="st20" width="45.3" height="57.2"/>
						</g>
					</g>
					<g class="st18">
						<defs>
							<rect id="SVGID_41_" x="19" y="13.5" width="48" height="49"/>
						</defs>
						<clipPath id="SVGID_42_">
							<use xlink:href="#SVGID_41_"  style="overflow:visible;"/>
						</clipPath>
						<rect x="20.5" y="14.4" class="st21" width="35.3" height="47.2"/>
					</g>
					<g class="st18">
						<defs>
							<polygon id="SVGID_43_" points="58.8,39.1 62,33.4 65.2,39 65.4,61.8 58.9,61.9 							"/>
						</defs>
						<clipPath id="SVGID_44_">
							<use xlink:href="#SVGID_43_"  style="overflow:visible;"/>
						</clipPath>
						<g class="st22">
							<defs>
								<rect id="SVGID_45_" x="19" y="13.5" width="48" height="49"/>
							</defs>
							<clipPath id="SVGID_46_">
								<use xlink:href="#SVGID_45_"  style="overflow:visible;"/>
							</clipPath>
							<rect x="53.8" y="28.4" class="st23" width="16.6" height="38.5"/>
						</g>
					</g>
					<g class="st18">
						<defs>
							<rect id="SVGID_47_" x="19" y="13.5" width="48" height="49"/>
						</defs>
						<clipPath id="SVGID_48_">
							<use xlink:href="#SVGID_47_"  style="overflow:visible;"/>
						</clipPath>
						<polygon class="st24" points="58.8,39.1 62,33.4 65.2,39 65.4,61.8 58.9,61.9 						"/>
					</g>
					<g class="st18">
						<defs>
							<line id="SVGID_49_" x1="64.4" y1="39.2" x2="59.6" y2="39.2"/>
						</defs>
						<clipPath id="SVGID_50_">
							<use xlink:href="#SVGID_49_"  style="overflow:visible;"/>
						</clipPath>
						<g class="st25">
							<defs>
								<rect id="SVGID_51_" x="19" y="13.5" width="48" height="49"/>
							</defs>
							<clipPath id="SVGID_52_">
								<use xlink:href="#SVGID_51_"  style="overflow:visible;"/>
							</clipPath>
							<rect x="54.6" y="34.2" class="st26" width="14.8" height="10"/>
						</g>
					</g>
					<g class="st18">
						<defs>
							<rect id="SVGID_53_" x="19" y="13.5" width="48" height="49"/>
						</defs>
						<clipPath id="SVGID_54_">
							<use xlink:href="#SVGID_53_"  style="overflow:visible;"/>
						</clipPath>
						<line class="st27" x1="64.4" y1="39.2" x2="59.6" y2="39.2"/>
					</g>
					<g class="st18">
						<defs>
							<line id="SVGID_55_" x1="64.6" y1="58" x2="58.8" y2="58"/>
						</defs>
						<clipPath id="SVGID_56_">
							<use xlink:href="#SVGID_55_"  style="overflow:visible;"/>
						</clipPath>
						<g class="st28">
							<defs>
								<rect id="SVGID_57_" x="19" y="13.5" width="48" height="49"/>
							</defs>
							<clipPath id="SVGID_58_">
								<use xlink:href="#SVGID_57_"  style="overflow:visible;"/>
							</clipPath>
							<rect x="53.8" y="53" class="st29" width="15.7" height="10"/>
						</g>
					</g>
					<g class="st18">
						<defs>
							<rect id="SVGID_59_" x="19" y="13.5" width="48" height="49"/>
						</defs>
						<clipPath id="SVGID_60_">
							<use xlink:href="#SVGID_59_"  style="overflow:visible;"/>
						</clipPath>
						<line class="st30" x1="64.6" y1="58" x2="58.8" y2="58"/>
					</g>
				</g>
			</g>
		</g>
	</g>
</g>
</svg>
