<?xml version="1.0" encoding="utf-8"?>
<!-- Generator: Adobe Illustrator 16.0.0, SVG Export Plug-In . SVG Version: 6.00 Build 0)  -->
<!DOCTYPE svg PUBLIC "-//W3C//DTD SVG 1.1//EN" "http://www.w3.org/Graphics/SVG/1.1/DTD/svg11.dtd">
<svg version="1.1" id="Layer_1" xmlns="http://www.w3.org/2000/svg" xmlns:xlink="http://www.w3.org/1999/xlink" x="0px" y="0px"
	 width="104.77px" height="72.699px" viewBox="0 0 104.77 72.699" enable-background="new 0 0 104.77 72.699" xml:space="preserve">
<g>
	<g>
		<defs>
			<path id="SVGID_1_" d="M10.448,31.212c6.869-0.577,14.025,1.321,20.575-0.682c3.506-1.071,6.529-3.188,9.244-5.506
				c6.229-5.315,11.174-11.83,17.504-17.041c6.331-5.211,14.756-9.145,23.072-7.671c6.414,1.137,11.835,5.409,15.187,10.603
				c3.352,5.194,4.845,11.244,5.586,17.257c1.101,8.924,0.147,19.059-7.042,25.084c-6.156,5.16-15.321,5.888-23.536,4.778
				c-8.214-1.108-16.154-3.768-24.428-4.398c-3.822-0.291-7.814-0.113-11.253,1.46c-5.904,2.702-9.753,9.265-16.306,9.867
				c-5.446,0.501-9.295-4.17-12.114-8.518C2.996,50.369-6.258,40.439,6.533,32.691C7.747,31.956,9.004,31.334,10.448,31.212z"/>
		</defs>
		<clipPath id="SVGID_2_">
			<use xlink:href="#SVGID_1_"  overflow="visible"/>
		</clipPath>
		<g clip-path="url(#SVGID_2_)">
			<defs>
				<rect id="SVGID_3_" x="-934" y="-498" width="1200" height="877"/>
			</defs>
			<clipPath id="SVGID_4_">
				<use xlink:href="#SVGID_3_"  overflow="visible"/>
			</clipPath>
			<rect x="-5" y="-5" clip-path="url(#SVGID_4_)" fill="#FAD052" width="112" height="75"/>
		</g>
	</g>
	<g>
		<defs>
			<rect id="SVGID_5_" x="19" y="21" width="75" height="51"/>
		</defs>
		<clipPath id="SVGID_6_">
			<use xlink:href="#SVGID_5_"  overflow="visible"/>
		</clipPath>
		<g clip-path="url(#SVGID_6_)">
			<defs>
				<rect id="SVGID_7_" x="-934" y="-498" width="1200" height="877"/>
			</defs>
			<clipPath id="SVGID_8_">
				<use xlink:href="#SVGID_7_"  overflow="visible"/>
			</clipPath>
			<rect x="14" y="16" clip-path="url(#SVGID_8_)" fill="#FFFFFF" width="85" height="61"/>
		</g>
	</g>
	<g>
		
			<rect x="19.315" y="21.315" fill="none" stroke="#AAADAF" stroke-linecap="round" stroke-linejoin="round" stroke-miterlimit="10" width="35.324" height="50.884"/>
		<polyline fill="none" stroke="#AAADAF" stroke-linecap="round" stroke-linejoin="round" stroke-miterlimit="10" points="
			90.175,72.199 93.96,70.938 93.96,22.577 90.175,21.315 		"/>
	</g>
	<g>
		<defs>
			<polygon id="SVGID_9_" points="19,72.515 94.275,72.515 94.275,23.049 89.387,21 19,21 			"/>
		</defs>
		<clipPath id="SVGID_10_">
			<use xlink:href="#SVGID_9_"  overflow="visible"/>
		</clipPath>
		<g clip-path="url(#SVGID_10_)">
			<defs>
				<rect id="SVGID_11_" x="-934" y="-498" width="1200" height="877"/>
			</defs>
			<clipPath id="SVGID_12_">
				<use xlink:href="#SVGID_11_"  overflow="visible"/>
			</clipPath>
			<g clip-path="url(#SVGID_12_)" enable-background="new    ">
				<g>
					<defs>
						<rect id="SVGID_13_" x="53" y="20" width="41" height="53"/>
					</defs>
					<clipPath id="SVGID_14_">
						<use xlink:href="#SVGID_13_"  overflow="visible"/>
					</clipPath>
					<g clip-path="url(#SVGID_14_)">
						<defs>
							<rect id="SVGID_15_" x="53" y="20" width="41" height="53"/>
						</defs>
						<clipPath id="SVGID_16_">
							<use xlink:href="#SVGID_15_"  overflow="visible"/>
						</clipPath>
						
							<rect x="54.808" y="21.315" clip-path="url(#SVGID_16_)" fill="none" stroke="#AAADAF" stroke-linecap="round" stroke-linejoin="round" stroke-miterlimit="10" width="35.324" height="50.884"/>
						
							<line clip-path="url(#SVGID_16_)" fill="none" stroke="#AAADAF" stroke-linecap="round" stroke-linejoin="round" stroke-miterlimit="10" x1="92.067" y1="22.052" x2="92.067" y2="71.464"/>
					</g>
				</g>
			</g>
		</g>
	</g>
	<g>
		
			<polygon fill="none" stroke="#AAADAF" stroke-width="1" stroke-linecap="round" stroke-linejoin="round" stroke-miterlimit="10" points="
			99.935,49.824 102.021,46.126 104.107,49.778 104.202,58.392 104.223,62.202 104.27,70.604 100.098,70.649 100.07,62.208 		"/>
		
			<line fill="none" stroke="#AAADAF" stroke-width="1" stroke-linecap="round" stroke-linejoin="round" stroke-miterlimit="10" x1="103.628" y1="49.878" x2="100.498" y2="49.912"/>
		
			<line fill="none" stroke="#AAADAF" stroke-width="1" stroke-linecap="round" stroke-linejoin="round" stroke-miterlimit="10" x1="103.762" y1="67.127" x2="100.03" y2="67.168"/>
	</g>
</g>
</svg>
