<?xml version="1.0" encoding="utf-8"?>
<!-- Generator: Adobe Illustrator 19.1.1, SVG Export Plug-In . SVG Version: 6.00 Build 0)  -->
<svg version="1.0" id="Layer_1" xmlns="http://www.w3.org/2000/svg" xmlns:xlink="http://www.w3.org/1999/xlink" x="0px" y="0px"
	 viewBox="-275 368.6 59.7 57.4" style="enable-background:new -275 368.6 59.7 57.4;" xml:space="preserve">
<style type="text/css">
	.st0{fill:#FAA720;}
	.st1{fill:none;stroke:#010101;stroke-miterlimit:10;}
	.st2{fill:#FFFFFF;}
	.st3{fill:none;stroke:#010101;stroke-linecap:round;stroke-linejoin:round;stroke-miterlimit:10;}
	.st4{fill:none;stroke:#ACACAC;stroke-linecap:round;stroke-linejoin:round;stroke-miterlimit:10;}
	.st5{fill:#FFD74C;}
</style>
<polygon class="st0" points="-215.9,392.2 -245.3,375.9 -274.5,391.6 -274.5,425.5 -273.1,425.5 -217.5,425.5 -215.9,425.5 "/>
<polygon class="st1" points="-215.9,392.2 -245.3,375.9 -274.5,391.6 -274.5,425.5 -273.1,425.5 -217.5,425.5 -215.9,425.5 "/>
<rect x="-265.8" y="369.1" class="st2" width="39.6" height="48"/>
<rect x="-265.8" y="369.1" class="st3" width="39.6" height="48"/>
<line class="st4" x1="-255.1" y1="378.9" x2="-235.4" y2="378.9"/>
<line class="st4" x1="-255.1" y1="385.2" x2="-235.4" y2="385.2"/>
<line class="st4" x1="-255.1" y1="391.7" x2="-235.4" y2="391.7"/>
<line class="st4" x1="-255.1" y1="398" x2="-235.4" y2="398"/>
<polygon class="st0" points="-273.7,391.8 -273.7,424.9 -216.6,424.9 "/>
<line class="st3" x1="-220.7" y1="422.8" x2="-273.7" y2="392.3"/>
<polygon class="st5" points="-216.6,393.1 -216.5,424.9 -272.6,425.1 "/>
<line class="st3" x1="-273.7" y1="425.1" x2="-215.8" y2="392.3"/>
</svg>
