<svg id="Layer_1"  width="245px" height="70px" data-name="Layer 1"
	xmlns="http://www.w3.org/2000/svg"
	xmlns:xlink="http://www.w3.org/1999/xlink" viewBox="168 30 120 120">
	<defs>
		<style>.cls-1{fill:#989898;}.cls-2{fill:#ed1189;}.cls-3{fill:url(#linear-gradient);}.cls-4{fill:url(#linear-gradient-2);}.cls-5{fill:#672d91;}</style>
		<linearGradient id="linear-gradient" x1="57.34" y1="100.8" x2="92.21" y2="34.56" gradientUnits="userSpaceOnUse">
			<stop offset="0" stop-color="#674595"/>
			<stop offset="0.23" stop-color="#813b93"/>
			<stop offset="0.72" stop-color="#c4218d"/>
			<stop offset="1" stop-color="#ed1189"/>
		</linearGradient>
		<linearGradient id="linear-gradient-2" x1="42.45" y1="126.93" x2="77.25" y2="60.82" gradientUnits="userSpaceOnUse">
			<stop offset="0" stop-color="#ed148c"/>
			<stop offset="0.08" stop-color="#ee1c84"/>
			<stop offset="0.22" stop-color="#ef336d"/>
			<stop offset="0.38" stop-color="#f25749"/>
			<stop offset="0.54" stop-color="#f58020"/>
			<stop offset="1" stop-color="#f68b1f"/>
		</linearGradient>
	</defs>
	<title>Artboard 1Open_BCards_</title>
	<path class="cls-1" d="M211.88,123.1a5.1,5.1,0,0,1,1.27,3.65v8h-2.29v-7.35a3.54,3.54,0,0,0-.89-2.56,3.23,3.23,0,0,0-2.45-.93,3.7,3.7,0,0,0-2.87,1.29,4.78,4.78,0,0,0-1,3.19v6.36h-2.29v-7.35a3.57,3.57,0,0,0-.88-2.56,3.23,3.23,0,0,0-2.46-.93,3.74,3.74,0,0,0-2.89,1.29,4.74,4.74,0,0,0-1.06,3.19v6.36h-2.26V121.83H194v2.7q1.27-2.73,4.8-2.78a4.93,4.93,0,0,1,3,.85,4.18,4.18,0,0,1,1.59,2.39q1.19-3.19,5-3.24A4.56,4.56,0,0,1,211.88,123.1Z"/>
	<path class="cls-1" d="M225.36,122.58a6,6,0,0,1,2.34,2.3,7.21,7.21,0,0,1,0,6.76,5.92,5.92,0,0,1-2.34,2.31,7.53,7.53,0,0,1-6.87,0,6,6,0,0,1-2.34-2.3,7.24,7.24,0,0,1,0-6.77,6,6,0,0,1,2.34-2.3,7.54,7.54,0,0,1,6.87,0Zm-5.67,1.73a4,4,0,0,0-1.53,1.62,4.94,4.94,0,0,0-.55,2.35,5.07,5.07,0,0,0,.55,2.39,3.94,3.94,0,0,0,1.53,1.62,4.41,4.41,0,0,0,2.25.57,4.36,4.36,0,0,0,2.23-.57,3.94,3.94,0,0,0,1.53-1.62,5.07,5.07,0,0,0,.55-2.39,4.94,4.94,0,0,0-.55-2.35,4,4,0,0,0-1.53-1.62,4.29,4.29,0,0,0-2.23-.58A4.34,4.34,0,0,0,219.68,124.31Z"/>
	<path class="cls-1" d="M235.16,122.5a5.36,5.36,0,0,1,2.78-.74v2.19a4.14,4.14,0,0,0-4.58,4v6.79h-2.26V121.83h2.26v2.78A4.66,4.66,0,0,1,235.16,122.5Z"/>
	<path class="cls-1" d="M249.48,123.52a7.24,7.24,0,0,1,1.53,4.91c0,.32,0,.57,0,.73H240.81a4.39,4.39,0,0,0,1.45,2.75,4.29,4.29,0,0,0,2.91,1,5.45,5.45,0,0,0,2.13-.41,5.12,5.12,0,0,0,1.72-1.17l1.24,1.29a6.51,6.51,0,0,1-2.29,1.58,7.62,7.62,0,0,1-3,.56,6.84,6.84,0,0,1-3.37-.82,5.73,5.73,0,0,1-2.29-2.3,7.4,7.4,0,0,1,0-6.76,5.94,5.94,0,0,1,2.28-2.31,6.57,6.57,0,0,1,3.34-.84A5.68,5.68,0,0,1,249.48,123.52Zm-.51,3.88a3.73,3.73,0,0,0-4-3.77,4.07,4.07,0,0,0-2.84,1,4.29,4.29,0,0,0-1.35,2.75Z"/>
	<path class="cls-1" d="M266.18,133.86a5.55,5.55,0,0,1-3,.95,3.43,3.43,0,0,1-2.48-.91,3.67,3.67,0,0,1-.95-2.76V124H257.9v-1.73h1.83v-3.46H262v3.46H266V124H262v6.72a2.38,2.38,0,0,0,.39,1.53,1.44,1.44,0,0,0,1.17.46,4.08,4.08,0,0,0,2-.61Z"/>
	<path class="cls-1" d="M279.18,123.08a5,5,0,0,1,1.29,3.66v8h-2.26v-7.35a3.44,3.44,0,0,0-.91-2.54,3.41,3.41,0,0,0-2.52-.91,3.83,3.83,0,0,0-3,1.27,4.68,4.68,0,0,0-1.1,3.21v6.33h-2.26V116.64h2.26v8q1.29-2.8,4.92-2.85A4.73,4.73,0,0,1,279.18,123.08Z"/>
	<path class="cls-1" d="M291.77,134.71v-1.8a5.28,5.28,0,0,1-4.51,1.9,5.14,5.14,0,0,1-2.35-.51,3.76,3.76,0,0,1-1.56-1.41,3.81,3.81,0,0,1-.55-2,3.31,3.31,0,0,1,1.28-2.74,5.72,5.72,0,0,1,3.57-1h4.09v-.61a2.66,2.66,0,0,0-.84-2.11,3.59,3.59,0,0,0-2.45-.74,7,7,0,0,0-4,1.39l-.95-1.56a11.79,11.79,0,0,1,2.57-1.3,8.76,8.76,0,0,1,2.81-.4,5.39,5.39,0,0,1,3.73,1.18,4.28,4.28,0,0,1,1.34,3.3l0,8.47Zm-1.35-2.54a3,3,0,0,0,1.33-2v-1.29H288a4.4,4.4,0,0,0-2.28.46,1.59,1.59,0,0,0-.74,1.46,1.9,1.9,0,0,0,.75,1.58,3.22,3.22,0,0,0,2,.58A4.61,4.61,0,0,0,290.42,132.17Z"/>
	<path class="cls-1" d="M308.16,123.08a5,5,0,0,1,1.29,3.66v8h-2.26v-7.35a3.44,3.44,0,0,0-.91-2.54,3.41,3.41,0,0,0-2.52-.91,3.89,3.89,0,0,0-2.81,1.11,4.35,4.35,0,0,0-1.23,2.81v6.89h-2.26V121.83h2.26v2.73q1.29-2.75,4.89-2.8A4.73,4.73,0,0,1,308.16,123.08Z"/>
	<path class="cls-1" d="M326.52,134.71v-1.8a5.28,5.28,0,0,1-4.51,1.9,5.14,5.14,0,0,1-2.35-.51,3.76,3.76,0,0,1-1.56-1.41,3.81,3.81,0,0,1-.55-2,3.31,3.31,0,0,1,1.28-2.74,5.73,5.73,0,0,1,3.57-1h4.09v-.61a2.66,2.66,0,0,0-.84-2.11,3.58,3.58,0,0,0-2.45-.74,7,7,0,0,0-4,1.39l-.95-1.56a11.76,11.76,0,0,1,2.57-1.3,8.75,8.75,0,0,1,2.81-.4,5.39,5.39,0,0,1,3.73,1.18,4.28,4.28,0,0,1,1.34,3.3l0,8.47Zm-1.35-2.54a3,3,0,0,0,1.33-2v-1.29h-3.77a4.4,4.4,0,0,0-2.28.46,1.6,1.6,0,0,0-.74,1.46,1.9,1.9,0,0,0,.76,1.58,3.22,3.22,0,0,0,2,.58A4.61,4.61,0,0,0,325.17,132.17Z"/>
	<path class="cls-1" d="M348.34,122.58a5.69,5.69,0,0,1,2.19,2.31,7.82,7.82,0,0,1,0,6.78,5.56,5.56,0,0,1-2.17,2.29,6.24,6.24,0,0,1-3.2.82,5.87,5.87,0,0,1-2.87-.68,4.89,4.89,0,0,1-1.95-1.95v2.56h-2.26V116.64h2.26v7.74a4.91,4.91,0,0,1,1.94-1.95,5.75,5.75,0,0,1,2.84-.68A6.24,6.24,0,0,1,348.34,122.58Zm-1.42,9.64a4,4,0,0,0,1.53-1.63,5,5,0,0,0,.55-2.36,4.88,4.88,0,0,0-.56-2.34,4.13,4.13,0,0,0-1.53-1.63,4.22,4.22,0,0,0-2.22-.58,4.29,4.29,0,0,0-2.23.58,4.1,4.1,0,0,0-1.55,1.63,5.23,5.23,0,0,0,0,4.71,4.12,4.12,0,0,0,1.55,1.62,4.54,4.54,0,0,0,4.46,0Z"/>
	<path class="cls-1" d="M361.74,134.71v-1.8a5.28,5.28,0,0,1-4.51,1.9,5.14,5.14,0,0,1-2.35-.51,3.76,3.76,0,0,1-1.56-1.41,3.81,3.81,0,0,1-.55-2,3.31,3.31,0,0,1,1.28-2.74,5.73,5.73,0,0,1,3.57-1h4.09v-.61a2.66,2.66,0,0,0-.84-2.11,3.58,3.58,0,0,0-2.45-.74,7,7,0,0,0-4,1.39l-.95-1.56a11.76,11.76,0,0,1,2.57-1.3,8.75,8.75,0,0,1,2.81-.4,5.39,5.39,0,0,1,3.73,1.18,4.28,4.28,0,0,1,1.34,3.3l0,8.47Zm-1.35-2.54a3,3,0,0,0,1.33-2v-1.29h-3.77a4.4,4.4,0,0,0-2.28.46,1.6,1.6,0,0,0-.74,1.46,1.9,1.9,0,0,0,.76,1.58,3.22,3.22,0,0,0,2,.58A4.61,4.61,0,0,0,360.39,132.17Z"/>
	<path class="cls-1" d="M378.13,123.08a5,5,0,0,1,1.29,3.66v8h-2.26v-7.35a3.44,3.44,0,0,0-.91-2.54,3.41,3.41,0,0,0-2.52-.91,3.89,3.89,0,0,0-2.81,1.11,4.35,4.35,0,0,0-1.23,2.81v6.89h-2.26V121.83h2.26v2.73q1.29-2.75,4.89-2.8A4.73,4.73,0,0,1,378.13,123.08Z"/>
	<path class="cls-1" d="M391.86,134.71l-4.12-6.26-2.51,2.61v3.65H383V116.64h2.26v11.52l6.23-6.33h2.65l-4.8,5,5.26,7.89Z"/>
	<path class="cls-2" d="M124.59,62.85A15.92,15.92,0,0,0,122.94,60,54.14,54.14,0,0,0,93.05,37.16l-.74-.31s-23-6.32-34.78,9.37a33.62,33.62,0,0,0-3.2,5.15,11,11,0,0,0-2.26-2.09c-7.14-4.93-13.46,1.64-13.46,1.64V51a54,54,0,1,0,86,11.83ZM77.07,115.07A30,30,0,0,1,46.94,85.14,29.65,29.65,0,0,1,52.09,68.4C53,72.28,56.5,83.91,66.76,90c12.44,7.37,22,4.17,25.6-.66,3-4.08,2.43-9.61-.59-14.54a9.4,9.4,0,0,1-1.38-4.31,5.44,5.44,0,0,1,2-5.26c2.61-1.77,7.1-.56,9.5,3h0a29.65,29.65,0,0,1,5.29,16.94A30,30,0,0,1,77.07,115.07Z"/>
	<path class="cls-3" d="M92.32,89.29c3-4.08,2.44-9.78-.56-14.5-2-3.17-2.45-7.65-2.74-8.84-1.25-5.21-.92-17.53,8.42-18.45a14,14,0,0,1,12.4,5.33c-2.91-9.16-12.36-16.69-25.73-17.19-7.77-.43-19.33.87-26.58,10.55a33.6,33.6,0,0,0-3.2,5.15,30.62,30.62,0,0,0-2.25,17C53,72.25,56.49,83.88,66.74,90,79.17,97.32,88.74,94.12,92.32,89.29Z"/>
	<path class="cls-4" d="M77.07,115.07A30,30,0,0,1,46.94,85.14,29.64,29.64,0,0,1,52,68.52h0a30.62,30.62,0,0,1,2.25-17l.07-.14a11,11,0,0,0-2.25-2.08c-7.14-4.93-13.46,1.64-13.46,1.64V51A54.09,54.09,0,0,0,24.34,99.83c12.48,11.56,30.18,15.29,49.22,15.8,21.66.59,28.1-13.17,28.1-13.17h0A30.16,30.16,0,0,1,77.07,115.07Z"/>
	<path class="cls-5" d="M185.89,107.66a38.19,38.19,0,0,1-14.72-2.8,36.24,36.24,0,0,1-11.68-7.61A35.12,35.12,0,0,1,151.79,86,34.53,34.53,0,0,1,149,72.13v-.2a35,35,0,0,1,10.6-25.27A37,37,0,0,1,171.37,39a40.14,40.14,0,0,1,29.44,0,36.29,36.29,0,0,1,11.68,7.61A35.19,35.19,0,0,1,220.2,57.9,34.55,34.55,0,0,1,223,71.74v.2a35,35,0,0,1-10.6,25.27,37,37,0,0,1-11.78,7.66,38.2,38.2,0,0,1-14.72,2.8M186,90.48A17.2,17.2,0,0,0,193.23,89a16.52,16.52,0,0,0,5.51-4,18.46,18.46,0,0,0,3.54-5.84,19.58,19.58,0,0,0,1.28-7.07v-.2a19.59,19.59,0,0,0-1.28-7.07A18.16,18.16,0,0,0,198.64,59,17.93,17.93,0,0,0,193,54.9a17.87,17.87,0,0,0-14.32,0,17.12,17.12,0,0,0-9.06,9.81,20.32,20.32,0,0,0-1.23,7.07v.2A19.57,19.57,0,0,0,169.7,79a18.55,18.55,0,0,0,3.59,5.89A17.3,17.3,0,0,0,178.86,89,16.71,16.71,0,0,0,186,90.48"/>
	<path class="cls-5" d="M354.08,88.74l-1.53-1.27c-2.65-1.83-6.32-2.57-11.27-.07a13.93,13.93,0,0,1-2,.83,18.88,18.88,0,0,1-7.58,1.52A15.89,15.89,0,0,1,322.18,87a14.08,14.08,0,0,1-5.25-8.47h45.78c.08-.84.12-1.69.12-2.53v-2.4a48.43,48.43,0,0,0-2.09-14.35,34.31,34.31,0,0,0-6.32-11.89,30.35,30.35,0,0,0-10.75-8.16,36.08,36.08,0,0,0-15.37-3,34.18,34.18,0,0,0-13.91,2.78,33.49,33.49,0,0,0-10.94,7.65,34.5,34.5,0,0,0-7.14,11.38,38.24,38.24,0,0,0-2.53,14v.25a37.66,37.66,0,0,0,2.72,14.54A32,32,0,0,0,304.1,97.9a34.82,34.82,0,0,0,11.57,7.21,40.72,40.72,0,0,0,14.8,2.59q10.24,0,17.51-3.79A37.11,37.11,0,0,0,358.33,96a18.69,18.69,0,0,0-4.25-7.23M320.6,57.18a10.09,10.09,0,0,1,7.84-3.35,10.64,10.64,0,0,1,8.09,3.35,15.22,15.22,0,0,1,3.79,9H316.55a17.77,17.77,0,0,1,4-9"/>
	<path class="cls-5" d="M430.85,107.68a7.32,7.32,0,0,0,6.51-7.13V61.89q0-12-6.31-18.88t-17.62-6.85a22.32,22.32,0,0,0-6.77,1A25.72,25.72,0,0,0,401,39.64a23.75,23.75,0,0,0-4.6,3.62,43.23,43.23,0,0,0-3.7,4.27V37.7H368v70h24.7V69.78q0-5.82,2.87-8.79A9.77,9.77,0,0,1,403,58a9,9,0,0,1,7,3q2.68,3,2.68,8.79v37.9Z"/>
	<path class="cls-5" d="M259.11,87.21a44.31,44.31,0,0,0,12.32-1.64,27.7,27.7,0,0,0,9.77-4.91,22.83,22.83,0,0,0,6.39-8.08,25.53,25.53,0,0,0,2.3-11.15v-.2a25.92,25.92,0,0,0-2.1-10.64,21.56,21.56,0,0,0-6-7.92,26.87,26.87,0,0,0-9.41-4.91,41.87,41.87,0,0,0-12.27-1.69H229.45v71.58h19.84V94.26a7.25,7.25,0,0,1,7.22-7Zm10.68-24.77a8.39,8.39,0,0,1-3,6.79q-3,2.5-8.28,2.5h-9.35V52.83h9.25q5.39,0,8.38,2.4a8.44,8.44,0,0,1,3,7Z"/>
</svg>