<?xml version="1.0" encoding="utf-8"?>
<!-- Generator: Adobe Illustrator 19.1.1, SVG Export Plug-In . SVG Version: 6.00 Build 0)  -->
<svg version="1.1" id="Layer_1" xmlns="http://www.w3.org/2000/svg" xmlns:xlink="http://www.w3.org/1999/xlink" x="0px" y="0px"
	 viewBox="-289 381 32 32" style="enable-background:new -289 381 32 32;" xml:space="preserve">
<style type="text/css">
	.st0{fill:none;stroke:#AAADAF;stroke-linecap:round;stroke-linejoin:round;stroke-miterlimit:10;}
</style>
<g>
	<path class="st0" d="M-268.3,388.6c1.6,0,2.9,1.3,2.9,2.9v0.9"/>
	<line class="st0" x1="-283.5" y1="392.3" x2="-278.5" y2="391"/>
	<ellipse class="st0" cx="-265.9" cy="400" rx="1.3" ry="1.3"/>
	<path class="st0" d="M-278.4,392.3h-5.2v15.6h18.5c1.6,0,2.9-1.3,2.9-2.9v-9.8c0-1.6-1.3-2.9-2.9-2.9h-2.8"/>
	<ellipse class="st0" cx="-273.1" cy="391.3" rx="5.2" ry="5.2"/>
	<path class="st0" d="M-275,389h1.7c0.8,0,1.4,0.6,1.4,1.4c0,0.8-0.6,1.4-1.4,1.4h-1.1l2.6,2.5"/>
	<line class="st0" x1="-275" y1="390.4" x2="-271.3" y2="390.4"/>
	<line class="st0" x1="-275" y1="389" x2="-271.3" y2="389"/>
</g>
</svg>
