<?xml version="1.0" encoding="utf-8"?>
<!-- Generator: Adobe Illustrator 19.1.1, SVG Export Plug-In . SVG Version: 6.00 Build 0)  -->
<svg version="1.1" id="Layer_1" xmlns="http://www.w3.org/2000/svg" xmlns:xlink="http://www.w3.org/1999/xlink" x="0px" y="0px"
	 viewBox="0 0 54.3 75.6" style="enable-background:new 0 0 54.3 75.6;" xml:space="preserve">
<style type="text/css">
	.st0{fill:#FFD74C;}
	.st1{fill:none;stroke:#010101;stroke-miterlimit:10;}
	.st2{fill:#FAA720;}
	.st3{fill:#FFFFFF;}
	.st4{fill:none;stroke:#010101;stroke-linecap:round;stroke-linejoin:round;stroke-miterlimit:10;}
</style>
<path class="st0" d="M0.5,37.9v24.8c0,2.2,1.8,4,4,4h37.9c2.2,0,4-1.8,4-4V37.9c0-2.2-1.8-4-4-4H4.5C2.3,33.9,0.5,35.8,0.5,37.9z"/>
<path class="st1" d="M0.5,37.9v24.8c0,2.2,1.8,4,4,4h37.9c2.2,0,4-1.8,4-4V37.9c0-2.2-1.8-4-4-4H4.5C2.3,33.9,0.5,35.8,0.5,37.9z"/>
<path class="st2" d="M3.8,36.2c0,1.3,0.9,2.3,2.1,2.4h41.7c2.2,0,4,1.8,4,4c0,0,0.1,12.6,0.1,14.7l-0.1,13.8c0,2.2-1.7,4-3.9,4H25.4
	h-4.5H4.5c-2.2,0-4-1.8-4-4V44.4v-1.8v-4v-0.7c0-2.2,1.8-4,4-4h1.1C4.5,34.2,3.8,35.2,3.8,36.2z"/>
<path class="st1" d="M3.8,36.2c0,1.3,0.9,2.3,2.1,2.4h41.7c2.2,0,4,1.8,4,4c0,0,0.1,12.6,0.1,14.7l-0.1,13.8c0,2.2-1.7,4-3.9,4H25.4
	h-4.5H4.5c-2.2,0-4-1.8-4-4V44.4v-1.8v-4v-0.7c0-2.2,1.8-4,4-4h1.1C4.5,34.2,3.8,35.2,3.8,36.2z"/>
<path class="st2" d="M53.8,51.9H41.5c-2.5,0-4.6,2.1-4.6,4.6v1.7c0,2.5,2.1,4.6,4.6,4.6h12.3V51.9z"/>
<path class="st1" d="M53.8,51.9H41.5c-2.5,0-4.6,2.1-4.6,4.6v1.7c0,2.5,2.1,4.6,4.6,4.6h12.3V51.9z"/>
<path class="st0" d="M47.2,57.3c0,2.1-1,3.1-3.1,3.1s-3.1-1-3.1-3.1s1-3.1,3.1-3.1S47.2,55.3,47.2,57.3z"/>
<path class="st1" d="M47.2,57.3c0,2.1-1,3.1-3.1,3.1s-3.1-1-3.1-3.1s1-3.1,3.1-3.1S47.2,55.3,47.2,57.3z"/>
<polygon class="st3" points="11.9,28.2 17.6,28.5 31.3,28.5 18,53.3 50.7,19.6 32.2,19.6 39.9,0.5 "/>
<polygon class="st4" points="11.9,28.2 17.6,28.5 31.3,28.5 18,53.3 50.7,19.6 32.2,19.6 39.9,0.5 "/>
</svg>
