<?xml version="1.0" encoding="utf-8"?>
<!-- Generator: Adobe Illustrator 19.1.1, SVG Export Plug-In . SVG Version: 6.00 Build 0)  -->
<svg version="1.1" id="Layer_1" xmlns="http://www.w3.org/2000/svg" xmlns:xlink="http://www.w3.org/1999/xlink" x="0px" y="0px"
	 viewBox="0 0 160.8 43.7" style="enable-background:new 0 0 160.8 43.7;" xml:space="preserve">
<style type="text/css">
	.st0{clip-path:url(#SVGID_2_);}
	.st1{clip-path:url(#SVGID_4_);enable-background:new    ;}
	.st2{clip-path:url(#SVGID_6_);}
	.st3{clip-path:url(#SVGID_8_);}
	.st4{clip-path:url(#SVGID_10_);fill:#682F8E;}
	.st5{clip-path:url(#SVGID_12_);}
	.st6{clip-path:url(#SVGID_14_);fill:#682F8E;}
	.st7{clip-path:url(#SVGID_16_);}
	.st8{clip-path:url(#SVGID_18_);fill:#682F8E;}
	.st9{clip-path:url(#SVGID_20_);}
	.st10{clip-path:url(#SVGID_22_);fill:#682F8E;}
</style>
<g>
	<defs>
		<polygon id="SVGID_1_" points="5.7,23.3 5.7,4.5 44.7,4.5 44.7,42.1 5.7,42.1 		"/>
	</defs>
	<clipPath id="SVGID_2_">
		<use xlink:href="#SVGID_1_"  style="overflow:visible;"/>
	</clipPath>
	<g class="st0">
		<defs>
			<rect id="SVGID_3_" x="-875.3" y="-151.3" width="1200" height="810"/>
		</defs>
		<clipPath id="SVGID_4_">
			<use xlink:href="#SVGID_3_"  style="overflow:visible;"/>
		</clipPath>
		<g class="st1">
			<g>
				<defs>
					<rect id="SVGID_5_" x="5.7" y="3.7" width="39" height="39"/>
				</defs>
				<clipPath id="SVGID_6_">
					<use xlink:href="#SVGID_5_"  style="overflow:visible;"/>
				</clipPath>
				<g class="st2">
					<defs>
						<path id="SVGID_7_" d="M25.2,42.1c-2.8,0-5.4-0.5-7.8-1.5c-2.4-1-4.4-2.3-6.1-4c-1.7-1.7-3.1-3.7-4.1-5.9
							c-1-2.3-1.5-4.7-1.5-7.3v-0.1c0-2.6,0.5-5,1.5-7.3c1-2.3,2.3-4.3,4.1-6c1.8-1.7,3.8-3,6.2-4c2.4-1,5-1.5,7.7-1.5
							C28,4.5,30.6,5,33,6c2.4,1,4.4,2.3,6.1,4c1.7,1.7,3.1,3.7,4.1,5.9c1,2.3,1.5,4.7,1.5,7.3v0.1c0,2.6-0.5,5-1.5,7.3
							c-1,2.3-2.4,4.3-4.1,6c-1.8,1.7-3.8,3-6.2,4C30.5,41.6,27.9,42.1,25.2,42.1 M25.2,33.1c1.4,0,2.6-0.3,3.8-0.8
							c1.1-0.5,2.1-1.2,2.9-2.1c0.8-0.9,1.4-1.9,1.9-3.1c0.4-1.2,0.7-2.4,0.7-3.7v-0.1c0-1.3-0.2-2.5-0.7-3.7
							c-0.4-1.2-1.1-2.2-1.9-3.1c-0.8-0.9-1.8-1.6-3-2.1c-1.1-0.5-2.4-0.8-3.8-0.8c-1.4,0-2.6,0.3-3.8,0.8c-1.1,0.5-2.1,1.2-2.9,2.1
							c-0.8,0.9-1.4,1.9-1.9,3.1c-0.4,1.2-0.6,2.4-0.6,3.7v0.1c0,1.3,0.2,2.5,0.7,3.7c0.4,1.2,1.1,2.2,1.9,3.1
							c0.8,0.9,1.8,1.6,2.9,2.1C22.6,32.8,23.8,33.1,25.2,33.1"/>
					</defs>
					<clipPath id="SVGID_8_">
						<use xlink:href="#SVGID_7_"  style="overflow:visible;"/>
					</clipPath>
					<g class="st3">
						<defs>
							<rect id="SVGID_9_" x="5.7" y="3.7" width="39" height="39"/>
						</defs>
						<clipPath id="SVGID_10_">
							<use xlink:href="#SVGID_9_"  style="overflow:visible;"/>
						</clipPath>
						<rect x="0.7" y="-0.5" class="st4" width="49" height="47.6"/>
					</g>
				</g>
			</g>
		</g>
	</g>
</g>
<g>
	<defs>
		<path id="SVGID_11_" d="M112.5,32l-0.8-0.7c-1.4-0.9-3.2-1.3-5.8,0c-0.4,0.2-0.7,0.3-1,0.4c-1.2,0.5-2.5,0.8-3.9,0.8
			c-1.9,0-3.6-0.5-4.9-1.4c-1.3-1-2.2-2.4-2.7-4.3h23.5c0-0.4,0.1-0.9,0.1-1.3v-1.2c0-2.6-0.4-5-1.1-7.4c-0.7-2.3-1.8-4.3-3.2-6.1
			c-1.4-1.7-3.3-3.1-5.5-4.2c-2.2-1-4.8-1.6-7.9-1.6c-2.6,0-5,0.5-7.1,1.4c-2.2,1-4,2.3-5.6,3.9C85,12,83.7,14,82.9,16.2
			c-0.9,2.2-1.3,4.6-1.3,7.2v0.1c0,2.7,0.5,5.2,1.4,7.5c0.9,2.2,2.2,4.2,3.9,5.7c1.7,1.6,3.6,2.8,5.9,3.7c2.3,0.9,4.8,1.3,7.6,1.3
			c3.5,0,6.5-0.6,9-1.9c2-1.1,3.8-2.4,5.3-4.1C114.6,35.5,114,33.4,112.5,32 M95.3,15.8c1-1.1,2.4-1.7,4-1.7c1.7,0,3.1,0.6,4.1,1.7
			c1.1,1.1,1.7,2.7,1.9,4.6H93.2C93.6,18.5,94.3,16.9,95.3,15.8"/>
	</defs>
	<clipPath id="SVGID_12_">
		<use xlink:href="#SVGID_11_"  style="overflow:visible;"/>
	</clipPath>
	<g class="st5">
		<defs>
			<rect id="SVGID_13_" x="-875.3" y="-151.3" width="1200" height="810"/>
		</defs>
		<clipPath id="SVGID_14_">
			<use xlink:href="#SVGID_13_"  style="overflow:visible;"/>
		</clipPath>
		<rect x="76.6" class="st6" width="45.4" height="46.7"/>
	</g>
</g>
<g>
	<defs>
		<path id="SVGID_15_" d="M152.1,40.8c1.8-0.2,3.2-1.7,3.3-3.6V17.9c0-4-1.1-7.2-3.2-9.5c-2.1-2.3-5-3.4-8.8-3.4
			c-1.2,0-2.4,0.2-3.4,0.5c-1,0.3-2,0.7-2.8,1.3c-0.9,0.5-1.6,1.1-2.3,1.8c-0.7,0.7-1.3,1.4-1.9,2.1V5.8h-12.4v35H133v-19
			c0-1.9,0.5-3.4,1.4-4.4c1-1,2.2-1.5,3.7-1.5c1.4,0,2.6,0.5,3.5,1.5c0.9,1,1.3,2.5,1.3,4.4v19H152.1z"/>
	</defs>
	<clipPath id="SVGID_16_">
		<use xlink:href="#SVGID_15_"  style="overflow:visible;"/>
	</clipPath>
	<g class="st7">
		<defs>
			<rect id="SVGID_17_" x="-875.3" y="-151.3" width="1200" height="810"/>
		</defs>
		<clipPath id="SVGID_18_">
			<use xlink:href="#SVGID_17_"  style="overflow:visible;"/>
		</clipPath>
		<rect x="115.7" y="0" class="st8" width="44.7" height="45.8"/>
	</g>
</g>
<g>
	<defs>
		<path id="SVGID_19_" d="M63.6,31c2.2,0,4.3-0.3,6.2-0.8c1.9-0.6,3.6-1.4,4.9-2.5c1.4-1.1,2.5-2.5,3.2-4.1c0.8-1.6,1.2-3.5,1.2-5.6
			v-0.1c0-2-0.4-3.8-1.1-5.4c-0.7-1.6-1.7-2.9-3-4c-1.3-1.1-2.9-1.9-4.8-2.5c-1.9-0.6-3.9-0.9-6.2-0.9H48.6v36.2h10v-6.8
			c0.1-2,1.7-3.6,3.6-3.6L63.6,31z M69.1,18.5c0,1.5-0.5,2.6-1.5,3.5c-1,0.8-2.4,1.3-4.2,1.3h-4.8v-9.6h4.7c1.8,0,3.2,0.4,4.3,1.2
			c1,0.8,1.5,2,1.5,3.6V18.5z"/>
	</defs>
	<clipPath id="SVGID_20_">
		<use xlink:href="#SVGID_19_"  style="overflow:visible;"/>
	</clipPath>
	<g class="st9">
		<defs>
			<rect id="SVGID_21_" x="-875.3" y="-151.3" width="1200" height="810"/>
		</defs>
		<clipPath id="SVGID_22_">
			<use xlink:href="#SVGID_21_"  style="overflow:visible;"/>
		</clipPath>
		<rect x="43.6" y="0.2" class="st10" width="40.5" height="46.2"/>
	</g>
</g>
</svg>
