<?xml version="1.0" encoding="utf-8"?>
<!-- Generator: Adobe Illustrator 19.1.1, SVG Export Plug-In . SVG Version: 6.00 Build 0)  -->
<svg version="1.0" id="Layer_1" xmlns="http://www.w3.org/2000/svg" xmlns:xlink="http://www.w3.org/1999/xlink" x="0px" y="0px"
	 viewBox="0 0 76.4 73.1" style="enable-background:new 0 0 76.4 73.1;" xml:space="preserve">
<style type="text/css">
	.st0{fill:#FFFFFF;}
	.st1{fill:none;stroke:#ABABAB;stroke-width:1.0145;stroke-linecap:round;stroke-linejoin:round;stroke-miterlimit:10;}
	.st2{fill:none;stroke:#ACACAC;stroke-linecap:round;stroke-linejoin:round;stroke-miterlimit:10;}
	.st3{fill:#FAD153;}
	.st4{fill:none;stroke:#010101;stroke-miterlimit:10;}
</style>
<rect x="0.5" y="0.5" class="st0" width="55.2" height="72.1"/>
<rect x="0.5" y="0.5" class="st1" width="55.2" height="72.1"/>
<line class="st2" x1="7.5" y1="13.3" x2="47.7" y2="13.3"/>
<line class="st2" x1="7.5" y1="8.8" x2="47.7" y2="8.8"/>
<line class="st2" x1="7.5" y1="49.3" x2="47.7" y2="49.3"/>
<line class="st2" x1="7.5" y1="17.8" x2="47.7" y2="17.8"/>
<line class="st2" x1="7.5" y1="22.4" x2="47.7" y2="22.4"/>
<line class="st2" x1="7.5" y1="26.8" x2="47.7" y2="26.8"/>
<line class="st2" x1="7.5" y1="31.3" x2="47.7" y2="31.3"/>
<line class="st2" x1="7.5" y1="35.9" x2="47.7" y2="35.9"/>
<line class="st2" x1="7.5" y1="40.4" x2="47.7" y2="40.4"/>
<line class="st2" x1="7.5" y1="44.8" x2="47.7" y2="44.8"/>
<line class="st2" x1="40.7" y1="8.8" x2="40.7" y2="49"/>
<line class="st2" x1="31.9" y1="8.8" x2="31.9" y2="49"/>
<line class="st2" x1="23.3" y1="8.8" x2="23.3" y2="49"/>
<line class="st2" x1="14.6" y1="8.8" x2="14.6" y2="49"/>
<path class="st3" d="M74.1,53.7l-9.8-9.8c-0.4-0.4-1.2-0.7-1.8-0.7s-1.3,0.1-1.8,0.7l-9.8,9.8c-0.9,0.9-0.9,2.5,0,3.4l0.7,0.7
	c0.9,0.9,2.5,0.9,3.4,0l4.5-4.5v16.2c0,1.3,1,2.5,2.5,2.5h1c1.3,0,2.5-1,2.5-2.5V53.6l4.5,4.5c0.9,0.9,2.5,0.9,3.4,0l0.7-0.7
	C75.2,56.3,75.2,54.8,74.1,53.7z"/>
<path class="st4" d="M74.1,53.7l-9.8-9.8c-0.4-0.4-1.2-0.7-1.8-0.7s-1.3,0.1-1.8,0.7l-9.8,9.8c-0.9,0.9-0.9,2.5,0,3.4l0.7,0.7
	c0.9,0.9,2.5,0.9,3.4,0l4.5-4.5v16.2c0,1.3,1,2.5,2.5,2.5h1c1.3,0,2.5-1,2.5-2.5V53.6l4.5,4.5c0.9,0.9,2.5,0.9,3.4,0l0.7-0.7
	C75.2,56.3,75.2,54.8,74.1,53.7z"/>
<path class="st3" d="M52,34.9h21c1.6,0,3,1.3,3,3s-1.3,3-3,3H52c-1.6,0-3-1.3-3-3S50.3,34.9,52,34.9z"/>
<path class="st4" d="M52,34.9h21c1.6,0,3,1.3,3,3s-1.3,3-3,3H52c-1.6,0-3-1.3-3-3S50.3,34.9,52,34.9z"/>
</svg>
