<?xml version="1.0" encoding="utf-8"?>
<!-- Generator: Adobe Illustrator 19.1.1, SVG Export Plug-In . SVG Version: 6.00 Build 0)  -->
<svg version="1.0" id="Layer_1" xmlns="http://www.w3.org/2000/svg" xmlns:xlink="http://www.w3.org/1999/xlink" x="0px" y="0px"
	 viewBox="0 0 80.3 51.1" style="enable-background:new 0 0 80.3 51.1;" xml:space="preserve">
<style type="text/css">
	.st0{fill:#DEDEDD;}
</style>
<path class="st0" d="M61.8,14.1c-1.4,0-2.8,0.2-4.2,0.5C54.3,6.1,46,0,36.3,0C23.7,0,13.4,10.3,13.4,22.9c0,0.5,0,0.9,0.1,1.3h-0.1
	C6.1,24.2,0,30.2,0,37.7C0,45,6.1,51.1,13.4,51.1h18.1V38.5h-8.1l14.1-16.8l14.1,16.8h-8.1V51H64c4,0,7.7-1.8,10.2-4.7
	c3.8-3.4,6.2-8.3,6.2-13.7C80.3,22.4,72,14.1,61.8,14.1z"/>
</svg>
