<?xml version="1.0" encoding="utf-8"?>
<!-- Generator: Adobe Illustrator 19.1.1, SVG Export Plug-In . SVG Version: 6.00 Build 0)  -->
<svg version="1.1" id="Layer_1" xmlns="http://www.w3.org/2000/svg" xmlns:xlink="http://www.w3.org/1999/xlink" x="0px" y="0px"
	 viewBox="0 0 32 32" style="enable-background:new 0 0 32 32;" xml:space="preserve">
<style type="text/css">
	.st0{fill:none;stroke:#ABAEB0;stroke-linecap:round;stroke-linejoin:round;stroke-miterlimit:10;}
</style>
<g>
	<path class="st0" d="M11.7,12.5h-1.7c-0.5,0-1-0.4-1-0.9V9.9c0-0.5,0.4-0.9,1-0.9h1.7c0.5,0,1,0.4,1,0.9v1.6
		C12.7,12.1,12.3,12.5,11.7,12.5z"/>
	<path class="st0" d="M17,12.5h-1.7c-0.5,0-1-0.4-1-0.9V9.9c0-0.5,0.4-0.9,1-0.9H17c0.5,0,1,0.4,1,0.9v1.6
		C18,12.1,17.5,12.5,17,12.5z"/>
	<path class="st0" d="M22.3,12.5h-1.7c-0.5,0-1-0.4-1-0.9V9.9c0-0.5,0.4-0.9,1-0.9h1.7c0.5,0,1,0.4,1,0.9v1.6
		C23.2,12.1,22.8,12.5,22.3,12.5z"/>
	<path class="st0" d="M11.7,17.8h-1.7c-0.5,0-1-0.4-1-0.9v-1.6c0-0.5,0.4-0.9,1-0.9h1.7c0.5,0,1,0.4,1,0.9v1.6
		C12.7,17.3,12.3,17.8,11.7,17.8z"/>
	<path class="st0" d="M17,17.8h-1.7c-0.5,0-1-0.4-1-0.9v-1.6c0-0.5,0.4-0.9,1-0.9H17c0.5,0,1,0.4,1,0.9v1.6
		C18,17.3,17.5,17.8,17,17.8z"/>
	<path class="st0" d="M22.3,17.8h-1.7c-0.5,0-1-0.4-1-0.9v-1.6c0-0.5,0.4-0.9,1-0.9h1.7c0.5,0,1,0.4,1,0.9v1.6
		C23.2,17.3,22.8,17.8,22.3,17.8z"/>
	<path class="st0" d="M11.7,23h-1.7c-0.5,0-1-0.4-1-0.9v-1.6c0-0.5,0.4-0.9,1-0.9h1.7c0.5,0,1,0.4,1,0.9v1.6
		C12.7,22.6,12.3,23,11.7,23z"/>
	<path class="st0" d="M17,23h-1.7c-0.5,0-1-0.4-1-0.9v-1.6c0-0.5,0.4-0.9,1-0.9H17c0.5,0,1,0.4,1,0.9v1.6C18,22.6,17.5,23,17,23z"/>
	<path class="st0" d="M22.3,23h-1.7c-0.5,0-1-0.4-1-0.9v-1.6c0-0.5,0.4-0.9,1-0.9h1.7c0.5,0,1,0.4,1,0.9v1.6
		C23.2,22.6,22.8,23,22.3,23z"/>
	<ellipse class="st0" cx="16.2" cy="16" rx="13.4" ry="13.2"/>
</g>
</svg>
