<?xml version="1.0" encoding="utf-8"?>
<!-- Generator: Adobe Illustrator 19.1.1, SVG Export Plug-In . SVG Version: 6.00 Build 0)  -->
<svg version="1.1" id="Layer_1" xmlns="http://www.w3.org/2000/svg" xmlns:xlink="http://www.w3.org/1999/xlink" x="0px" y="0px"
	 viewBox="0 0 13 17" style="enable-background:new 0 0 13 17;" xml:space="preserve">
<style type="text/css">
	.st0{opacity:0.4997;clip-path:url(#SVGID_2_);enable-background:new    ;}
	.st1{clip-path:url(#SVGID_4_);}
	.st2{clip-path:url(#SVGID_6_);}
	.st3{fill:#010101;}
</style>
<g>
	<defs>
		<rect id="SVGID_1_" x="-187.9" y="-712.6" width="1200" height="977"/>
	</defs>
	<clipPath id="SVGID_2_">
		<use xlink:href="#SVGID_1_"  style="overflow:visible;"/>
	</clipPath>
	<g class="st0">
		<g>
			<defs>
				<rect id="SVGID_3_" x="1.2" y="0.5" width="10.7" height="16.1"/>
			</defs>
			<clipPath id="SVGID_4_">
				<use xlink:href="#SVGID_3_"  style="overflow:visible;"/>
			</clipPath>
			<g class="st1">
				<defs>
					<rect id="SVGID_5_" x="1.2" y="0.5" width="10.7" height="16.1"/>
				</defs>
				<clipPath id="SVGID_6_">
					<use xlink:href="#SVGID_5_"  style="overflow:visible;"/>
				</clipPath>
				<g class="st2">
					<path class="st3" d="M10.1,6.4c-0.3,0-0.6-0.3-0.6-0.6c0-2.2-1.3-4-3-4c-1.7,0-3,1.8-3,4c0,0.3-0.3,0.6-0.6,0.6
						S2.2,6.1,2.2,5.7c0-2.9,1.9-5.3,4.3-5.3c2.3,0,4.3,2.4,4.3,5.3C10.7,6.1,10.4,6.4,10.1,6.4z"/>
				</g>
				<g class="st2">
					<path class="st3" d="M2.8,13c-0.3,0-0.6-0.3-0.6-0.6V5.7c0-0.3,0.3-0.6,0.6-0.6s0.6,0.3,0.6,0.6v6.6C3.4,12.7,3.2,13,2.8,13z"
						/>
				</g>
				<g class="st2">
					<path class="st3" d="M5.3,16c-1.7,0-3.1-1.6-3.1-3.6c0-0.3,0.3-0.6,0.6-0.6s0.6,0.3,0.6,0.6c0,1.3,0.8,2.4,1.9,2.4
						s1.9-1.1,1.9-2.4c0-0.3,0.3-0.6,0.6-0.6s0.6,0.3,0.6,0.6C8.5,14.4,7.1,16,5.3,16z"/>
				</g>
				<g class="st2">
					<path class="st3" d="M7.8,13c-0.3,0-0.6-0.3-0.6-0.6V5.7c0-0.3,0.3-0.6,0.6-0.6s0.6,0.3,0.6,0.6v6.6C8.5,12.7,8.2,13,7.8,13z"
						/>
				</g>
				<g class="st2">
					<path class="st3" d="M7.8,6.4c-0.3,0-0.6-0.3-0.6-0.6c0-0.6-0.4-1-0.8-1s-0.8,0.5-0.8,1c0,0.3-0.3,0.6-0.6,0.6S4.4,6.1,4.4,5.7
						c0-1.3,0.9-2.3,2-2.3s2,1,2,2.3C8.5,6.1,8.2,6.4,7.8,6.4z"/>
				</g>
				<g class="st2">
					<path class="st3" d="M5,12.3c-0.3,0-0.6-0.3-0.6-0.6v-6c0-0.3,0.3-0.6,0.6-0.6s0.6,0.3,0.6,0.6v6C5.7,12.1,5.4,12.3,5,12.3z"/>
				</g>
				<g class="st2">
					<path class="st3" d="M10.1,12.3c-0.3,0-0.6-0.3-0.6-0.6v-6c0-0.3,0.3-0.6,0.6-0.6s0.6,0.3,0.6,0.6v6
						C10.7,12.1,10.4,12.3,10.1,12.3z"/>
				</g>
			</g>
		</g>
	</g>
</g>
</svg>
