<?xml version="1.0" encoding="utf-8"?>
<!-- Generator: Adobe Illustrator 16.0.0, SVG Export Plug-In . SVG Version: 6.00 Build 0)  -->
<!DOCTYPE svg PUBLIC "-//W3C//DTD SVG 1.1//EN" "http://www.w3.org/Graphics/SVG/1.1/DTD/svg11.dtd">
<svg version="1.1" id="Layer_1" xmlns="http://www.w3.org/2000/svg" xmlns:xlink="http://www.w3.org/1999/xlink" x="0px" y="0px"
	 width="19.596px" height="22.628px" viewBox="0 0 19.596 22.628" enable-background="new 0 0 19.596 22.628" xml:space="preserve">
<g>
	<g>
		<defs>
			<path id="SVGID_1_" d="M12.019,3.729c-0.065,0-0.132-0.017-0.191-0.053c-0.18-0.106-0.239-0.337-0.134-0.517l1.576-2.665
				c0.105-0.179,0.338-0.239,0.518-0.133c0.18,0.106,0.238,0.337,0.133,0.517l-1.576,2.665C12.273,3.663,12.147,3.729,12.019,3.729"
				/>
		</defs>
		<clipPath id="SVGID_2_">
			<use xlink:href="#SVGID_1_"  overflow="visible"/>
		</clipPath>
		<g clip-path="url(#SVGID_2_)">
			<defs>
				<rect id="SVGID_3_" x="-284" y="-293.177" width="1200" height="1035"/>
			</defs>
			<clipPath id="SVGID_4_">
				<use xlink:href="#SVGID_3_"  overflow="visible"/>
			</clipPath>
			<rect x="6.642" y="-4.691" clip-path="url(#SVGID_4_)" fill="#FEFEFE" width="12.331" height="13.42"/>
		</g>
	</g>
	<g>
		<defs>
			<path id="SVGID_5_" d="M12.019,3.994c-0.114,0-0.228-0.031-0.327-0.09c-0.305-0.18-0.406-0.575-0.226-0.88l1.575-2.665
				c0.088-0.148,0.227-0.253,0.393-0.295c0.168-0.043,0.34-0.019,0.488,0.069c0.305,0.18,0.406,0.575,0.226,0.88l-1.575,2.665
				C12.457,3.873,12.245,3.994,12.019,3.994"/>
		</defs>
		<clipPath id="SVGID_6_">
			<use xlink:href="#SVGID_5_"  overflow="visible"/>
		</clipPath>
		<g clip-path="url(#SVGID_6_)">
			<defs>
				<rect id="SVGID_7_" x="-284" y="-293.177" width="1200" height="1035"/>
			</defs>
			<clipPath id="SVGID_8_">
				<use xlink:href="#SVGID_7_"  overflow="visible"/>
			</clipPath>
			<rect x="6.377" y="-4.956" clip-path="url(#SVGID_8_)" fill="#FAD052" width="12.859" height="13.95"/>
		</g>
	</g>
	<g>
		<defs>
			<path id="SVGID_9_" d="M18.953,7.142h-0.005l-3.095-0.04c-0.209-0.002-0.376-0.173-0.373-0.382
				c0.002-0.208,0.168-0.368,0.383-0.373l3.095,0.04c0.208,0.002,0.375,0.173,0.372,0.382C19.328,6.976,19.16,7.142,18.953,7.142"/>
		</defs>
		<clipPath id="SVGID_10_">
			<use xlink:href="#SVGID_9_"  overflow="visible"/>
		</clipPath>
		<g clip-path="url(#SVGID_10_)">
			<defs>
				<rect id="SVGID_11_" x="-284" y="-293.177" width="1200" height="1035"/>
			</defs>
			<clipPath id="SVGID_12_">
				<use xlink:href="#SVGID_11_"  overflow="visible"/>
			</clipPath>
			<rect x="10.48" y="1.347" clip-path="url(#SVGID_12_)" fill="#FEFEFE" width="13.85" height="10.794"/>
		</g>
	</g>
	<g>
		<defs>
			<path id="SVGID_13_" d="M18.953,7.406h-0.005l-3.099-0.04c-0.172-0.002-0.332-0.071-0.452-0.194s-0.185-0.285-0.183-0.457
				c0.005-0.349,0.287-0.627,0.643-0.634l3.104,0.04c0.172,0.002,0.332,0.071,0.452,0.194c0.12,0.123,0.185,0.285,0.183,0.457
				C19.592,7.122,19.303,7.406,18.953,7.406"/>
		</defs>
		<clipPath id="SVGID_14_">
			<use xlink:href="#SVGID_13_"  overflow="visible"/>
		</clipPath>
		<g clip-path="url(#SVGID_14_)">
			<defs>
				<rect id="SVGID_15_" x="-284" y="-293.177" width="1200" height="1035"/>
			</defs>
			<clipPath id="SVGID_16_">
				<use xlink:href="#SVGID_15_"  overflow="visible"/>
			</clipPath>
			<rect x="10.215" y="1.082" clip-path="url(#SVGID_16_)" fill="#FAD052" width="14.381" height="11.324"/>
		</g>
	</g>
	<g>
		<defs>
			<path id="SVGID_17_" d="M3.738,7.142H3.733l-3.096-0.04C0.429,7.099,0.262,6.928,0.265,6.719
				c0.002-0.208,0.168-0.375,0.382-0.373l3.095,0.04C3.951,6.389,4.118,6.56,4.115,6.769C4.113,6.976,3.944,7.142,3.738,7.142"/>
		</defs>
		<clipPath id="SVGID_18_">
			<use xlink:href="#SVGID_17_"  overflow="visible"/>
		</clipPath>
		<g clip-path="url(#SVGID_18_)">
			<defs>
				<rect id="SVGID_19_" x="-284" y="-293.177" width="1200" height="1035"/>
			</defs>
			<clipPath id="SVGID_20_">
				<use xlink:href="#SVGID_19_"  overflow="visible"/>
			</clipPath>
			<rect x="-4.735" y="1.347" clip-path="url(#SVGID_20_)" fill="#FEFEFE" width="13.85" height="10.795"/>
		</g>
	</g>
	<g>
		<defs>
			<path id="SVGID_21_" d="M3.738,7.406H3.733l-3.099-0.04C0.463,7.365,0.302,7.296,0.183,7.173C0.063,7.05-0.002,6.888,0,6.716
				c0.002-0.173,0.071-0.334,0.193-0.454c0.123-0.119,0.28-0.182,0.458-0.18l3.095,0.04c0.172,0.002,0.332,0.071,0.452,0.194
				c0.12,0.123,0.185,0.285,0.183,0.457C4.376,7.122,4.088,7.406,3.738,7.406"/>
		</defs>
		<clipPath id="SVGID_22_">
			<use xlink:href="#SVGID_21_"  overflow="visible"/>
		</clipPath>
		<g clip-path="url(#SVGID_22_)">
			<defs>
				<rect id="SVGID_23_" x="-284" y="-293.177" width="1200" height="1035"/>
			</defs>
			<clipPath id="SVGID_24_">
				<use xlink:href="#SVGID_23_"  overflow="visible"/>
			</clipPath>
			<rect x="-5" y="1.082" clip-path="url(#SVGID_24_)" fill="#FAD052" width="14.381" height="11.324"/>
		</g>
	</g>
	<g>
		<defs>
			<path id="SVGID_25_" d="M7.617,3.705c-0.131,0-0.258-0.068-0.328-0.189L5.747,0.831C5.644,0.65,5.706,0.419,5.887,0.315
				s0.411-0.042,0.516,0.14l1.542,2.684c0.104,0.181,0.041,0.412-0.14,0.516C7.746,3.688,7.681,3.705,7.617,3.705"/>
		</defs>
		<clipPath id="SVGID_26_">
			<use xlink:href="#SVGID_25_"  overflow="visible"/>
		</clipPath>
		<g clip-path="url(#SVGID_26_)">
			<defs>
				<rect id="SVGID_27_" x="-284" y="-293.177" width="1200" height="1035"/>
			</defs>
			<clipPath id="SVGID_28_">
				<use xlink:href="#SVGID_27_"  overflow="visible"/>
			</clipPath>
			<rect x="0.697" y="-4.735" clip-path="url(#SVGID_28_)" fill="#FEFEFE" width="12.297" height="13.439"/>
		</g>
	</g>
	<g>
		<defs>
			<rect id="SVGID_29_" x="5.432" width="2.827" height="3.97"/>
		</defs>
		<clipPath id="SVGID_30_">
			<use xlink:href="#SVGID_29_"  overflow="visible"/>
		</clipPath>
		<g clip-path="url(#SVGID_30_)">
			<defs>
				<rect id="SVGID_31_" x="-284" y="-293.177" width="1200" height="1035"/>
			</defs>
			<clipPath id="SVGID_32_">
				<use xlink:href="#SVGID_31_"  overflow="visible"/>
			</clipPath>
			<g clip-path="url(#SVGID_32_)" enable-background="new    ">
				<g>
					<defs>
						<rect id="SVGID_33_" x="5" y="-0.177" width="4" height="5"/>
					</defs>
					<clipPath id="SVGID_34_">
						<use xlink:href="#SVGID_33_"  overflow="visible"/>
					</clipPath>
					<g clip-path="url(#SVGID_34_)">
						<defs>
							<path id="SVGID_35_" d="M7.617,3.97c-0.229,0-0.443-0.124-0.558-0.322L5.518,0.963c-0.177-0.307-0.07-0.701,0.236-0.877
								C5.903,0,6.076-0.022,6.242,0.022s0.304,0.151,0.39,0.3l1.542,2.684c0.176,0.308,0.07,0.701-0.236,0.878
								C7.84,3.94,7.729,3.97,7.617,3.97"/>
						</defs>
						<clipPath id="SVGID_36_">
							<use xlink:href="#SVGID_35_"  overflow="visible"/>
						</clipPath>
						<g clip-path="url(#SVGID_36_)">
							<defs>
								<rect id="SVGID_37_" x="5" y="-0.177" width="4" height="5"/>
							</defs>
							<clipPath id="SVGID_38_">
								<use xlink:href="#SVGID_37_"  overflow="visible"/>
							</clipPath>
							<rect x="0.432" y="-5" clip-path="url(#SVGID_38_)" fill="#FAD052" width="12.828" height="13.97"/>
						</g>
					</g>
				</g>
			</g>
		</g>
	</g>
	<g>
		<defs>
			<path id="SVGID_39_" d="M6.797,14.07v1.33h5.743v-1.38c1.15-0.876,1.894-2.26,1.894-3.818c0-2.65-2.148-4.798-4.799-4.798
				s-4.798,2.148-4.798,4.798C4.837,11.79,5.608,13.196,6.797,14.07"/>
		</defs>
		<clipPath id="SVGID_40_">
			<use xlink:href="#SVGID_39_"  overflow="visible"/>
		</clipPath>
		<g clip-path="url(#SVGID_40_)">
			<defs>
				<rect id="SVGID_41_" x="-284" y="-293.177" width="1200" height="1035"/>
			</defs>
			<clipPath id="SVGID_42_">
				<use xlink:href="#SVGID_41_"  overflow="visible"/>
			</clipPath>
			<rect x="-0.163" y="0.403" clip-path="url(#SVGID_42_)" fill="#FAD052" width="19.597" height="19.997"/>
		</g>
	</g>
	<g>
		<defs>
			<path id="SVGID_43_" d="M6.947,17.432c0.3,0.725,1.015,1.237,1.844,1.237h1.754c0.83,0,1.544-0.513,1.844-1.237H6.947z"/>
		</defs>
		<clipPath id="SVGID_44_">
			<use xlink:href="#SVGID_43_"  overflow="visible"/>
		</clipPath>
		<g clip-path="url(#SVGID_44_)">
			<defs>
				<rect id="SVGID_45_" x="-284" y="-293.177" width="1200" height="1035"/>
			</defs>
			<clipPath id="SVGID_46_">
				<use xlink:href="#SVGID_45_"  overflow="visible"/>
			</clipPath>
			<rect x="1.948" y="12.432" clip-path="url(#SVGID_46_)" fill="#FAD052" width="15.441" height="11.237"/>
		</g>
	</g>
	<g>
		<defs>
			<path id="SVGID_47_" d="M6.797,16.082v0.593c0,0.025,0.002,0.05,0.004,0.076h5.736c0-0.025,0.003-0.05,0.003-0.076v-0.593H6.797z
				"/>
		</defs>
		<clipPath id="SVGID_48_">
			<use xlink:href="#SVGID_47_"  overflow="visible"/>
		</clipPath>
		<g clip-path="url(#SVGID_48_)">
			<defs>
				<rect id="SVGID_49_" x="-284" y="-293.177" width="1200" height="1035"/>
			</defs>
			<clipPath id="SVGID_50_">
				<use xlink:href="#SVGID_49_"  overflow="visible"/>
			</clipPath>
			<rect x="1.796" y="11.082" clip-path="url(#SVGID_50_)" fill="#FAD052" width="15.744" height="10.669"/>
		</g>
	</g>
</g>
</svg>
