<?xml version="1.0" encoding="utf-8"?>
<!-- Generator: Adobe Illustrator 19.1.1, SVG Export Plug-In . SVG Version: 6.00 Build 0)  -->
<svg version="1.1" id="Layer_1" xmlns="http://www.w3.org/2000/svg" xmlns:xlink="http://www.w3.org/1999/xlink" x="0px" y="0px"
	 viewBox="0 0 11 11" style="enable-background:new 0 0 11 11;" xml:space="preserve">
<style type="text/css">
	.st0{clip-path:url(#SVGID_2_);}
	.st1{clip-path:url(#SVGID_4_);fill:#FFFFFF;}
	.st2{clip-path:url(#SVGID_6_);}
	.st3{clip-path:url(#SVGID_8_);fill:#FFFFFF;}
</style>
<g>
	<g>
		<defs>
			<path id="SVGID_1_" d="M0.4,0.8l0.4-0.4c0.4-0.4,1-0.4,1.4,0l8.4,8.4c0.4,0.4,0.4,1,0,1.4l-0.4,0.4c-0.4,0.4-1,0.4-1.4,0L0.4,2.2
				C0,1.8,0,1.2,0.4,0.8z"/>
		</defs>
		<clipPath id="SVGID_2_">
			<use xlink:href="#SVGID_1_"  style="overflow:visible;"/>
		</clipPath>
		<g class="st0">
			<defs>
				<rect id="SVGID_3_" x="-413.1" y="-136" width="1200" height="731"/>
			</defs>
			<clipPath id="SVGID_4_">
				<use xlink:href="#SVGID_3_"  style="overflow:visible;"/>
			</clipPath>
			
				<rect x="-0.8" y="-6.4" transform="matrix(-0.7071 0.7071 -0.7071 -0.7071 13.2875 5.5227)" class="st1" width="12.6" height="23.9"/>
		</g>
	</g>
	<g>
		<defs>
			<path id="SVGID_5_" d="M10.2,0.4l0.4,0.4c0.4,0.4,0.4,1,0,1.4l-8.4,8.4c-0.4,0.4-1,0.4-1.4,0l-0.4-0.4C0,9.8,0,9.2,0.4,8.8
				l8.4-8.4C9.2,0,9.8,0,10.2,0.4z"/>
		</defs>
		<clipPath id="SVGID_6_">
			<use xlink:href="#SVGID_5_"  style="overflow:visible;"/>
		</clipPath>
		<g class="st2">
			<defs>
				<rect id="SVGID_7_" x="-413.1" y="-136" width="1200" height="731"/>
			</defs>
			<clipPath id="SVGID_8_">
				<use xlink:href="#SVGID_7_"  style="overflow:visible;"/>
			</clipPath>
			
				<rect x="-0.8" y="-6.4" transform="matrix(-0.7071 -0.7071 0.7071 -0.7071 5.4913 13.3005)" class="st3" width="12.6" height="23.9"/>
		</g>
	</g>
</g>
</svg>
