<?xml version="1.0" encoding="utf-8"?>
<!-- Generator: Adobe Illustrator 19.1.1, SVG Export Plug-In . SVG Version: 6.00 Build 0)  -->
<svg version="1.1" id="Layer_1" xmlns="http://www.w3.org/2000/svg" xmlns:xlink="http://www.w3.org/1999/xlink" x="0px" y="0px"
	 viewBox="0 0 27.6 31" style="enable-background:new 0 0 27.6 31;" xml:space="preserve">
<style type="text/css">
	.st0{fill:#FFFFFF;}
	.st1{fill:none;stroke:#ACAFB1;stroke-linecap:round;stroke-linejoin:round;stroke-miterlimit:10;}
	.st2{fill:none;stroke:#ACAFB1;stroke-width:1.074;stroke-linecap:round;stroke-linejoin:round;stroke-miterlimit:10;}
	.st3{fill:none;stroke:#ACAFB1;stroke-miterlimit:10;}
	.st4{fill:none;stroke:#ACAFB1;stroke-width:0.975;stroke-linecap:round;stroke-linejoin:round;stroke-miterlimit:10;}
	.st5{fill:#FFFFFF;stroke:#010101;stroke-miterlimit:10;}
</style>
<g>
	<path class="st0" d="M1,10.9v18.8h22.7c0,0,2.5-0.8,2.9-3.5l-0.2-12.8c0,0-1-3-5.7-2.5c0,0,0.2-6.3-1.2-6.8c0,0-3.3-3.8-7.2-3
		c0,0-4.5-0.5-5.6,3.8C5.6,9,4.9,10.4,4.1,10.2L1,10.9z"/>
	<path class="st1" d="M21.7,6.6c0.9,0.5,1.1,1.8,1.1,3.3v1"/>
	<line class="st2" x1="1" y1="10.9" x2="5" y2="9.6"/>
	<path class="st1" d="M5.6,10.9H1v18.8h22.1c1.9,0,3.5-1.6,3.5-3.5V14.4c0-1.9-1.6-3.5-3.5-3.5h-1.8"/>
	<circle class="st3" cx="13.4" cy="8.7" r="7.7"/>
	<path class="st4" d="M10.2,4.9h2.7c1.2,0,2.2,1,2.2,2.2c0,1.2-1,2.2-2.2,2.2h-1.8l4.2,4.1"/>
	<line class="st4" x1="10.3" y1="7.2" x2="16.3" y2="7.2"/>
	<line class="st4" x1="10.3" y1="4.9" x2="16.3" y2="4.9"/>
	<circle class="st2" cx="22.1" cy="20.1" r="1.6"/>
	<path class="st5" d="M7.8,13.9"/>
</g>
</svg>
