<?xml version="1.0" encoding="utf-8"?>
<!-- Generator: Adobe Illustrator 19.1.1, SVG Export Plug-In . SVG Version: 6.00 Build 0)  -->
<svg version="1.1" id="Layer_1" xmlns="http://www.w3.org/2000/svg" xmlns:xlink="http://www.w3.org/1999/xlink" x="0px" y="0px"
	 viewBox="259.9 224.2 16.2 16.4" style="enable-background:new 259.9 224.2 16.2 16.4;" xml:space="preserve">
<style type="text/css">
	.st0{fill:#AAADAF;}
</style>
<g>
	<g>
		<path class="st0" d="M267.7,237.6c0.1,0.1,0.1,0.1,0.2,0.1c0,0,0,0,0,0c0.1,0,0.1,0,0.2,0s0.1,0,0.2,0c0,0,0,0,0,0
			c0.1,0,0.1-0.1,0.2-0.1l7.4-7.4c0.2-0.2,0.2-0.6,0-0.8s-0.6-0.2-0.8,0l-6.5,6.5V225c0-0.3-0.2-0.6-0.6-0.6c-0.3,0-0.6,0.2-0.6,0.6
			v10.8l-6.5-6.5c-0.2-0.2-0.6-0.2-0.8,0s-0.2,0.6,0,0.8L267.7,237.6L267.7,237.6z"/>
		<path class="st0" d="M260.7,239.6h14.9c0.3,0,0.6-0.2,0.6-0.6s-0.2-0.6-0.6-0.6h-14.9c-0.3,0-0.6,0.2-0.6,0.6
			C260.1,239.4,260.4,239.6,260.7,239.6z"/>
	</g>
</g>
</svg>
