<svg id="Layer_1" data-name="Layer 1" xmlns="http://www.w3.org/2000/svg" viewBox="0 0 24 24"><defs><style>.cls-1{fill:#abaeb0;}</style></defs><title>Artboard 2 copy</title><path class="cls-1" d="M11.89,21.46a9.85,9.85,0,1,1,9.85-9.85A9.86,9.86,0,0,1,11.89,21.46Zm0-18.78a8.93,8.93,0,1,0,8.93,8.93A8.94,8.94,0,0,0,11.89,2.68Z"/><path class="cls-1" d="M11.09,13.88l0-.38A3.35,3.35,0,0,1,12,11a3.21,3.21,0,0,0,1-2c0-.75-.47-1.24-1.39-1.26a2.6,2.6,0,0,0-1.48.45l-.35-.92a3.83,3.83,0,0,1,2.09-.58,2.16,2.16,0,0,1,2.44,2.15A4,4,0,0,1,13,11.35a2.89,2.89,0,0,0-.83,2.15v.38Zm-.32,2a.86.86,0,0,1,.88-.92.91.91,0,1,1-.88.92Z"/></svg>