<svg id="Layer_1" data-name="Layer 1" xmlns="http://www.w3.org/2000/svg" viewBox="0 0 76.33 71"><defs><style>.cls-1{fill:#ffe300;}.cls-2{fill:#fff;stroke:#000;stroke-linecap:round;stroke-linejoin:round;stroke-width:0.75px;}</style></defs><title>no_invoices</title><circle class="cls-1" cx="29.24" cy="33.57" r="23.98"/><circle class="cls-1" cx="53.22" cy="25.36" r="17.08"/><circle class="cls-1" cx="53.22" cy="45.07" r="17.74"/><rect class="cls-2" x="66.42" y="42.49" width="2.5" height="8.5" rx="1.25" ry="1.25" transform="translate(112.63 -22.13) rotate(88.5)"/><rect class="cls-2" x="62.72" y="49.9" width="2.5" height="8.5" rx="1.25" ry="1.25" transform="translate(146.55 39.81) rotate(129.9)"/><rect class="cls-2" x="62.35" y="35.37" width="2.5" height="8.5" rx="1.25" ry="1.25" transform="translate(86.97 110.8) rotate(-140.1)"/><rect class="cls-2" x="7.29" y="42.4" width="2.5" height="8.5" rx="1.25" ry="1.25" transform="translate(-37.87 56.41) rotate(-91.5)"/><rect class="cls-2" x="10.99" y="34.99" width="2.5" height="8.5" rx="1.25" ry="1.25" transform="translate(-25.71 23.46) rotate(-50.1)"/><rect class="cls-2" x="11.37" y="49.52" width="2.5" height="8.5" rx="1.25" ry="1.25" transform="translate(37.43 4.43) rotate(39.9)"/><rect class="cls-2" x="22.35" y="25.77" width="31.67" height="42.33"/><rect class="cls-2" x="26.31" y="31.1" width="23.75" height="27.76"/><line class="cls-2" x1="26.31" y1="38" x2="49.81" y2="38"/><line class="cls-2" x1="26.31" y1="41.48" x2="49.81" y2="41.48"/><line class="cls-2" x1="26.31" y1="44.97" x2="49.81" y2="44.97"/><line class="cls-2" x1="26.31" y1="48.46" x2="49.81" y2="48.46"/><line class="cls-2" x1="26.31" y1="51.95" x2="49.81" y2="51.95"/><line class="cls-2" x1="26.31" y1="55.44" x2="49.81" y2="55.44"/><line class="cls-2" x1="43.06" y1="38.07" x2="43.06" y2="58.69"/><line class="cls-2" x1="42.83" y1="62.1" x2="50.06" y2="62.1"/></svg>