<svg id="Layer_1" data-name="Layer 1" xmlns="http://www.w3.org/2000/svg" viewBox="0 0 76.33 71"><defs><style>.cls-1{fill:#ffe300;}.cls-2{fill:#fff;stroke:#000;stroke-linecap:round;stroke-linejoin:round;stroke-width:0.75px;}</style></defs><title>no_payments</title><circle class="cls-1" cx="29.24" cy="33.57" r="23.98"/><circle class="cls-1" cx="53.22" cy="25.36" r="17.08"/><circle class="cls-1" cx="53.22" cy="45.07" r="17.74"/><rect class="cls-2" x="61.23" y="19.6" width="2.5" height="8.5" rx="1.25" ry="1.25" transform="translate(44.85 -40.66) rotate(53.82)"/><rect class="cls-2" x="62.41" y="27.8" width="2.5" height="8.5" rx="1.25" ry="1.25" transform="translate(101.37 -28.43) rotate(95.21)"/><rect class="cls-2" x="53.83" y="16.07" width="2.5" height="8.5" rx="1.25" ry="1.25" transform="translate(108.08 45.56) rotate(-174.79)"/><path class="cls-2" d="M51.48,36.91V33s.08-5.12-5.55-3.42l-30.62,7.3"/><path class="cls-2" d="M42.26,36.91h-27V68.1H52.05a5.77,5.77,0,0,0,5.76-5.76V42.67a5.77,5.77,0,0,0-5.76-5.76H42.59"/><circle class="cls-2" cx="50.32" cy="52.22" r="2.59"/></svg>