<svg id="Layer_1" data-name="Layer 1" xmlns="http://www.w3.org/2000/svg" viewBox="0 0 76.33 71"><defs><style>.cls-1{fill:#ffe300;}.cls-2{fill:#fff;stroke:#000;stroke-linecap:round;stroke-linejoin:round;stroke-width:0.75px;}</style></defs><title>no_transaction</title><circle class="cls-1" cx="29.24" cy="33.57" r="23.98"/><circle class="cls-1" cx="53.22" cy="25.36" r="17.08"/><circle class="cls-1" cx="53.22" cy="45.07" r="17.74"/><rect class="cls-2" x="8.72" y="42.4" width="2.5" height="8.5" rx="1.25" ry="1.25" transform="translate(-36.41 57.83) rotate(-91.5)"/><rect class="cls-2" x="12.42" y="34.99" width="2.5" height="8.5" rx="1.25" ry="1.25" transform="matrix(0.64, -0.77, 0.77, 0.64, -25.2, 24.55)"/><rect class="cls-2" x="12.79" y="49.52" width="2.5" height="8.5" rx="1.25" ry="1.25" transform="translate(37.76 3.51) rotate(39.9)"/><rect class="cls-2" x="23.77" y="25.77" width="31.67" height="42.33"/><circle class="cls-2" cx="39.97" cy="51.09" r="8.64"/><path class="cls-2" d="M36.44,46.78H39.5a2.5,2.5,0,0,1,2.5,2.5h0a2.5,2.5,0,0,1-2.5,2.5H37.45l4.69,4.59"/><line class="cls-2" x1="36.54" y1="49.33" x2="43.25" y2="49.33"/><line class="cls-2" x1="36.54" y1="46.78" x2="43.25" y2="46.78"/><path class="cls-2" d="M61,35.19l-.57-.57h0l-5.14-5.14a1.22,1.22,0,0,0-1.71,0l-.57.57a1.22,1.22,0,0,0,0,1.71l2.67,2.67h-9a1.22,1.22,0,0,0-1.21,1.21v.81a1.22,1.22,0,0,0,1.21,1.21h9L53,40.33A1.22,1.22,0,0,0,53,42l.57.57a1.22,1.22,0,0,0,1.71,0l5.14-5.14.57-.57A1.22,1.22,0,0,0,61,35.19Z"/><path class="cls-2" d="M35,31.16l.57.57h0l5.14,5.14a1.22,1.22,0,0,0,1.71,0L43,36.3a1.22,1.22,0,0,0,0-1.71l-2.67-2.67h9a1.22,1.22,0,0,0,1.21-1.21V29.9a1.22,1.22,0,0,0-1.21-1.21h-9L43,26a1.22,1.22,0,0,0,0-1.71l-.57-.57a1.22,1.22,0,0,0-1.71,0l-5.14,5.14-.57.57A1.22,1.22,0,0,0,35,31.16Z"/></svg>