<svg id="Layer_1" data-name="Layer 1" xmlns="http://www.w3.org/2000/svg" viewBox="0 0 24 24"><defs><style>.cls-1{fill:#abaeb0;}</style></defs><title>Artboard 2 copy 2</title><path class="cls-1" d="M20.16,19.7H3.62A.48.48,0,0,1,3.2,19l1.64-3.1V10.55a7,7,0,0,1,5-6.73V3.18a2.07,2.07,0,0,1,4.15,0v.64a7,7,0,0,1,5,6.73v5.33L20.58,19a.48.48,0,0,1-.42.7Zm-15.74-1H19.36L18,16.23A.48.48,0,0,1,18,16V10.55a6.09,6.09,0,0,0-4.62-5.91A.48.48,0,0,1,13,4.18v-1a1.11,1.11,0,0,0-2.23,0v1a.48.48,0,0,1-.36.46,6.09,6.09,0,0,0-4.62,5.91V16a.48.48,0,0,1-.06.22Z"/><path class="cls-1" d="M11.89,22.11a2.42,2.42,0,0,1-2.42-2.42v-.26a.48.48,0,0,1,1,0v.26a1.46,1.46,0,0,0,2.92,0v-.26a.48.48,0,0,1,1,0v.26A2.42,2.42,0,0,1,11.89,22.11Z"/></svg>