<?xml version="1.0" encoding="utf-8"?>
<!-- Generator: Adobe Illustrator 19.1.1, SVG Export Plug-In . SVG Version: 6.00 Build 0)  -->
<svg version="1.1" id="Layer_1" xmlns="http://www.w3.org/2000/svg" xmlns:xlink="http://www.w3.org/1999/xlink" x="0px" y="0px"
	 viewBox="0 0 32 32" style="enable-background:new 0 0 32 32;" xml:space="preserve">
<style type="text/css">
	.st0{fill:none;stroke:#AAADAF;stroke-linecap:round;stroke-linejoin:round;stroke-miterlimit:10;}
</style>
<g>
	<path class="st0" d="M20.9,11c1.6,0,2.9,1.3,2.9,2.9v0.9"/>
	<line class="st0" x1="5.6" y1="14.7" x2="10.7" y2="13.4"/>
	<ellipse class="st0" cx="23.3" cy="22.4" rx="1.3" ry="1.3"/>
	<path class="st0" d="M10.8,14.7H5.6v15.6h18.5c1.6,0,2.9-1.3,2.9-2.9v-9.8c0-1.6-1.3-2.9-2.9-2.9h-2.8"/>
	<ellipse class="st0" cx="16" cy="13.7" rx="5.2" ry="5.2"/>
	<path class="st0" d="M14.1,11.4h1.7c0.8,0,1.4,0.6,1.4,1.4c0,0.8-0.6,1.4-1.4,1.4h-1.1l2.6,2.5"/>
	<line class="st0" x1="14.1" y1="12.8" x2="17.9" y2="12.8"/>
	<line class="st0" x1="14.1" y1="11.4" x2="17.9" y2="11.4"/>
	<line class="st0" x1="13.9" y1="1.7" x2="13.9" y2="6.1"/>
	<line class="st0" x1="18.1" y1="1.7" x2="18.1" y2="6.1"/>
	<line class="st0" x1="15.9" y1="2.7" x2="15.9" y2="7.1"/>
</g>
</svg>
