<?xml version="1.0" encoding="utf-8"?>
<!-- Generator: Adobe Illustrator 16.0.0, SVG Export Plug-In . SVG Version: 6.00 Build 0)  -->
<!DOCTYPE svg PUBLIC "-//W3C//DTD SVG 1.1//EN" "http://www.w3.org/Graphics/SVG/1.1/DTD/svg11.dtd">
<svg version="1.1" id="Layer_1" xmlns="http://www.w3.org/2000/svg" xmlns:xlink="http://www.w3.org/1999/xlink" x="0px" y="0px"
	 width="19.197px" height="21.026px" viewBox="0 0 19.197 21.026" enable-background="new 0 0 19.197 21.026" xml:space="preserve">
<path fill="none" stroke="#AAADAF" stroke-width="1.074" stroke-linecap="round" stroke-linejoin="round" stroke-miterlimit="10" d="
	M14.34,3.946c1.35,0,1.621,1.159,1.621,2.509v0.736"/>
<line fill="none" stroke="#AAADAF" stroke-width="1.074" stroke-linecap="round" stroke-linejoin="round" stroke-miterlimit="10" x1="0.537" y1="7.191" x2="3.048" y2="6.404"/>
<circle fill="none" stroke="#AAADAF" stroke-width="1.074" stroke-linecap="round" stroke-linejoin="round" stroke-miterlimit="10" cx="15.47" cy="13.718" r="1.104"/>
<path fill="none" stroke="#AAADAF" stroke-width="1.074" stroke-linecap="round" stroke-linejoin="round" stroke-miterlimit="10" d="
	M3.298,7.191H0.537v13.298h15.669c1.35,0,2.454-1.104,2.454-2.454V9.646c0-1.352-1.104-2.455-2.454-2.455h-1.804"/>
<circle fill="none" stroke="#AAADAF" stroke-width="1.074" stroke-linecap="round" stroke-linejoin="round" stroke-miterlimit="10" cx="8.993" cy="6.006" r="5.469"/>
<path fill="none" stroke="#AAADAF" stroke-width="0.975" stroke-linecap="round" stroke-linejoin="round" stroke-miterlimit="10" d="
	M6.756,3.273h1.939c0.869,0,1.581,0.711,1.581,1.581c0,0.869-0.712,1.581-1.581,1.581h-1.3l2.97,2.906"/>
<line fill="none" stroke="#AAADAF" stroke-width="0.975" stroke-linecap="round" stroke-linejoin="round" stroke-miterlimit="10" x1="6.82" y1="4.892" x2="11.068" y2="4.892"/>
<line fill="none" stroke="#AAADAF" stroke-width="0.975" stroke-linecap="round" stroke-linejoin="round" stroke-miterlimit="10" x1="6.82" y1="3.273" x2="11.068" y2="3.273"/>
</svg>
