<?xml version="1.0" encoding="utf-8"?>
<!-- Generator: Adobe Illustrator 19.1.1, SVG Export Plug-In . SVG Version: 6.00 Build 0)  -->
<svg version="1.1" id="Layer_1" xmlns="http://www.w3.org/2000/svg" xmlns:xlink="http://www.w3.org/1999/xlink" x="0px" y="0px"
	 viewBox="0 0 39 36.4" style="enable-background:new 0 0 39 36.4;" xml:space="preserve">
<style type="text/css">
	.st0{fill:none;stroke:#673795;stroke-linecap:round;stroke-linejoin:round;stroke-miterlimit:10;}
</style>
<polygon class="st0" points="38.5,35.9 0.5,35.9 0.5,13.6 19.5,26.7 38.5,13.6 "/>
<polyline class="st0" points="29.1,7.1 19.4,0.5 9.8,7.1 "/>
<line class="st0" x1="3" y1="11.9" x2="0.5" y2="13.6"/>
<line class="st0" x1="38.5" y1="13.6" x2="35.8" y2="11.8"/>
<path class="st0" d="M7,10.7C7,10.8,7,10.8,7,10.7C7,12.6,5.5,14,3.7,14c-0.1,0-0.1,0-0.2,0"/>
<path class="st0" d="M35.7,14c-0.1,0-0.1,0-0.2,0c-1.8,0-3.3-1.5-3.3-3.3v-0.1"/>
<path class="st0" d="M24.1,17.6c0,1.3-0.5,2.4-1.4,3.3c-0.9,0.9-2,1.4-3.3,1.4c-1.3,0-2.4-0.5-3.3-1.4c-0.9-0.9-1.4-2-1.4-3.3
	s0.5-2.4,1.4-3.3c0.9-0.9,2-1.4,3.3-1.4c1.3,0,2.4,0.5,3.3,1.4C23.6,15.2,24.1,16.3,24.1,17.6z"/>
<polyline class="st0" points="3.1,15.3 3.1,10.4 35.8,10.4 35.8,15.4 "/>
<line class="st0" x1="4" y1="7.2" x2="34.9" y2="7.2"/>
</svg>
