<?xml version="1.0" encoding="utf-8"?>
<!-- Generator: Adobe Illustrator 19.1.1, SVG Export Plug-In . SVG Version: 6.00 Build 0)  -->
<svg version="1.1" id="Layer_1" xmlns="http://www.w3.org/2000/svg" xmlns:xlink="http://www.w3.org/1999/xlink" x="0px" y="0px"
	 viewBox="0 0 8 10" style="enable-background:new 0 0 8 10;" xml:space="preserve">
<style type="text/css">
	.st0{clip-path:url(#SVGID_2_);fill:#7A7A7A;}
</style>
<g>
	<defs>
		<rect id="SVGID_1_" x="-422.2" y="-705.2" width="1200" height="1158"/>
	</defs>
	<clipPath id="SVGID_2_">
		<use xlink:href="#SVGID_1_"  style="overflow:visible;"/>
	</clipPath>
	<path class="st0" d="M5,2.8C4.9,2.3,4.8,1.9,4.4,1.6C4.1,1.3,3.5,1.1,2.8,1.1H1.6l0.2-0.7h5.9L7.6,1.1H5.2c0.5,0.4,0.8,1,0.8,1.7
		h1.7L7.5,3.4H6.1C6,4,5.8,4.4,5.4,4.7C5,5.1,4.4,5.4,3.7,5.5c0.2,0.1,0.4,0.4,0.7,0.8l2.7,3.5H5.7L3.3,6.6C3.1,6.3,2.8,6,2.6,5.9
		C2.4,5.7,2.1,5.6,1.7,5.6V4.9h0.7c0.9,0,1.5-0.2,2-0.5c0.3-0.2,0.5-0.6,0.6-1H1.6l0.2-0.7H5z"/>
	<g style="clip-path:url(#SVGID_2_);">
		<text transform="matrix(1 0 0 1 198.8034 -23.2323)" style="fill:#7A7A7A; font-family:'OpenSans'; font-size:13px;">GST (%)</text>
	</g>
</g>
</svg>
