<?xml version="1.0" encoding="utf-8"?>
<!-- Generator: Adobe Illustrator 19.1.1, SVG Export Plug-In . SVG Version: 6.00 Build 0)  -->
<svg version="1.1" id="Layer_1" xmlns="http://www.w3.org/2000/svg" xmlns:xlink="http://www.w3.org/1999/xlink" x="0px" y="0px"
	 viewBox="0 0 13.4 9.9" style="enable-background:new 0 0 13.4 9.9;" xml:space="preserve">
<style type="text/css">
	.st0{clip-path:url(#SVGID_2_);}
	.st1{clip-path:url(#SVGID_4_);fill:#FFFFFF;}
</style>
<g>
	<defs>
		<path id="SVGID_1_" d="M4.6,7.3l6.9-6.9c0.4-0.4,1.1-0.4,1.5,0c0.4,0.4,0.4,1.1,0,1.5L5.5,9.5c0,0,0,0,0,0c0,0,0,0,0,0
			C5,10,4.3,10,3.9,9.5L0.3,6c-0.4-0.4-0.4-1.1,0-1.5C0.7,4,1.4,4,1.8,4.5L4.6,7.3z"/>
	</defs>
	<clipPath id="SVGID_2_">
		<use xlink:href="#SVGID_1_"  style="overflow:visible;"/>
	</clipPath>
	<g class="st0">
		<defs>
			<rect id="SVGID_3_" x="-411.1" y="-465" width="1200" height="731"/>
		</defs>
		<clipPath id="SVGID_4_">
			<use xlink:href="#SVGID_3_"  style="overflow:visible;"/>
		</clipPath>
		
			<rect x="-4.8" y="-5.4" transform="matrix(-0.7071 0.7071 -0.7071 -0.7071 13.6779 0.6315)" class="st1" width="23" height="17.2"/>
	</g>
</g>
</svg>
