<?xml version="1.0" encoding="utf-8"?>
<!-- Generator: Adobe Illustrator 19.1.1, SVG Export Plug-In . SVG Version: 6.00 Build 0)  -->
<svg version="1.1" id="Layer_1" xmlns="http://www.w3.org/2000/svg" xmlns:xlink="http://www.w3.org/1999/xlink" x="0px" y="0px"
	 viewBox="0 0 48.2 35.8" style="enable-background:new 0 0 48.2 35.8;" xml:space="preserve">
<style type="text/css">
	.st0{clip-path:url(#SVGID_2_);}
	.st1{clip-path:url(#SVGID_4_);fill:#85C441;}
</style>
<g>
	<defs>
		<path id="SVGID_1_" d="M16.9,26L42.3,0.6c0.8-0.8,2-0.8,2.8,0l2.5,2.5c0.8,0.8,0.8,2,0,2.8L19.7,33.8l-1.4,1.4
			c-0.8,0.8-2,0.8-2.8,0L0.6,20.3c-0.8-0.8-0.8-2,0-2.8L3.1,15c0.8-0.8,2-0.8,2.8,0L16.9,26z"/>
	</defs>
	<clipPath id="SVGID_2_">
		<use xlink:href="#SVGID_1_"  style="overflow:visible;"/>
	</clipPath>
	<g class="st0">
		<defs>
			<rect id="SVGID_3_" x="-565.3" y="-373.8" width="1200" height="818"/>
		</defs>
		<clipPath id="SVGID_4_">
			<use xlink:href="#SVGID_3_"  style="overflow:visible;"/>
		</clipPath>
		
			<rect x="-3.6" y="-5.8" transform="matrix(-0.7071 0.7071 -0.7071 -0.7071 49.4039 2.9331)" class="st1" width="55.4" height="35"/>
	</g>
</g>
</svg>
