<?xml version="1.0" encoding="utf-8"?>
<!-- Generator: Adobe Illustrator 19.1.1, SVG Export Plug-In . SVG Version: 6.00 Build 0)  -->
<svg version="1.1" id="Layer_1" xmlns="http://www.w3.org/2000/svg" xmlns:xlink="http://www.w3.org/1999/xlink" x="0px" y="0px"
	 viewBox="0 0 29.8 29.8" style="enable-background:new 0 0 29.8 29.8;" xml:space="preserve">
<style type="text/css">
	.st0{clip-path:url(#SVGID_2_);}
	.st1{clip-path:url(#SVGID_4_);fill:#FAD153;}
	.st2{clip-path:url(#SVGID_6_);}
	.st3{clip-path:url(#SVGID_8_);fill:#FFFFFF;}
	.st4{clip-path:url(#SVGID_10_);}
	.st5{clip-path:url(#SVGID_12_);fill:#FFFFFF;}
	.st6{clip-path:url(#SVGID_14_);}
	.st7{clip-path:url(#SVGID_16_);fill:#FFFFFF;}
	.st8{clip-path:url(#SVGID_18_);}
	.st9{clip-path:url(#SVGID_20_);enable-background:new    ;}
	.st10{clip-path:url(#SVGID_22_);}
	.st11{clip-path:url(#SVGID_24_);}
	.st12{clip-path:url(#SVGID_26_);fill:#FFFFFF;}
	.st13{clip-path:url(#SVGID_28_);}
	.st14{clip-path:url(#SVGID_30_);fill:#FFFFFF;}
	.st15{clip-path:url(#SVGID_32_);}
	.st16{clip-path:url(#SVGID_34_);fill:#FFFFFF;}
	.st17{clip-path:url(#SVGID_36_);}
	.st18{clip-path:url(#SVGID_38_);fill:#FFFFFF;}
</style>
<g>
	<defs>
		<circle id="SVGID_1_" cx="14.9" cy="14.9" r="14.9"/>
	</defs>
	<clipPath id="SVGID_2_">
		<use xlink:href="#SVGID_1_"  style="overflow:visible;"/>
	</clipPath>
	<g class="st0">
		<defs>
			<rect id="SVGID_3_" x="-719" y="-138" width="1200" height="844"/>
		</defs>
		<clipPath id="SVGID_4_">
			<use xlink:href="#SVGID_3_"  style="overflow:visible;"/>
		</clipPath>
		<rect x="-5" y="-5" class="st1" width="39.8" height="39.8"/>
	</g>
</g>
<g>
	<defs>
		<path id="SVGID_5_" d="M17.6,9.6c-0.1,0-0.2,0-0.3-0.1C17,9.3,16.9,9,17,8.6L18.6,6c0.1-0.1,0.2-0.3,0.4-0.3c0.2,0,0.3,0,0.5,0.1
			c0.3,0.2,0.4,0.6,0.2,0.9l-1.6,2.7C18,9.5,17.8,9.6,17.6,9.6"/>
	</defs>
	<clipPath id="SVGID_6_">
		<use xlink:href="#SVGID_5_"  style="overflow:visible;"/>
	</clipPath>
	<g class="st2">
		<defs>
			<rect id="SVGID_7_" x="-719" y="-138" width="1200" height="844"/>
		</defs>
		<clipPath id="SVGID_8_">
			<use xlink:href="#SVGID_7_"  style="overflow:visible;"/>
		</clipPath>
		<rect x="12" y="0.7" class="st3" width="12.9" height="14"/>
	</g>
</g>
<g>
	<defs>
		<path id="SVGID_9_" d="M24.5,13L24.5,13l-3.1,0c-0.2,0-0.3-0.1-0.5-0.2c-0.1-0.1-0.2-0.3-0.2-0.5c0-0.3,0.3-0.6,0.6-0.6l3.1,0
			c0.2,0,0.3,0.1,0.5,0.2c0.1,0.1,0.2,0.3,0.2,0.5C25.2,12.7,24.9,13,24.5,13"/>
	</defs>
	<clipPath id="SVGID_10_">
		<use xlink:href="#SVGID_9_"  style="overflow:visible;"/>
	</clipPath>
	<g class="st4">
		<defs>
			<rect id="SVGID_11_" x="-719" y="-138" width="1200" height="844"/>
		</defs>
		<clipPath id="SVGID_12_">
			<use xlink:href="#SVGID_11_"  style="overflow:visible;"/>
		</clipPath>
		<rect x="15.8" y="6.7" class="st5" width="14.4" height="11.3"/>
	</g>
</g>
<g>
	<defs>
		<path id="SVGID_13_" d="M9.3,13L9.3,13l-3.1,0c-0.2,0-0.3-0.1-0.5-0.2c-0.1-0.1-0.2-0.3-0.2-0.5c0-0.2,0.1-0.3,0.2-0.5
			c0.1-0.1,0.3-0.2,0.5-0.2l3.1,0c0.2,0,0.3,0.1,0.5,0.2c0.1,0.1,0.2,0.3,0.2,0.5C10,12.7,9.7,13,9.3,13"/>
	</defs>
	<clipPath id="SVGID_14_">
		<use xlink:href="#SVGID_13_"  style="overflow:visible;"/>
	</clipPath>
	<g class="st6">
		<defs>
			<rect id="SVGID_15_" x="-719" y="-138" width="1200" height="844"/>
		</defs>
		<clipPath id="SVGID_16_">
			<use xlink:href="#SVGID_15_"  style="overflow:visible;"/>
		</clipPath>
		<rect x="0.6" y="6.7" class="st7" width="14.4" height="11.3"/>
	</g>
</g>
<g>
	<defs>
		<rect id="SVGID_17_" x="11" y="5.6" width="2.8" height="4"/>
	</defs>
	<clipPath id="SVGID_18_">
		<use xlink:href="#SVGID_17_"  style="overflow:visible;"/>
	</clipPath>
	<g class="st8">
		<defs>
			<rect id="SVGID_19_" x="-719" y="-138" width="1200" height="844"/>
		</defs>
		<clipPath id="SVGID_20_">
			<use xlink:href="#SVGID_19_"  style="overflow:visible;"/>
		</clipPath>
		<g class="st9">
			<g>
				<defs>
					<rect id="SVGID_21_" x="11" y="5" width="3" height="5"/>
				</defs>
				<clipPath id="SVGID_22_">
					<use xlink:href="#SVGID_21_"  style="overflow:visible;"/>
				</clipPath>
				<g class="st10">
					<defs>
						<path id="SVGID_23_" d="M13.2,9.6c-0.2,0-0.4-0.1-0.6-0.3l-1.5-2.7c-0.2-0.3-0.1-0.7,0.2-0.9c0.1-0.1,0.3-0.1,0.5-0.1
							c0.2,0,0.3,0.2,0.4,0.3l1.5,2.7c0.2,0.3,0.1,0.7-0.2,0.9C13.4,9.6,13.3,9.6,13.2,9.6"/>
					</defs>
					<clipPath id="SVGID_24_">
						<use xlink:href="#SVGID_23_"  style="overflow:visible;"/>
					</clipPath>
					<g class="st11">
						<defs>
							<rect id="SVGID_25_" x="11" y="5" width="3" height="5"/>
						</defs>
						<clipPath id="SVGID_26_">
							<use xlink:href="#SVGID_25_"  style="overflow:visible;"/>
						</clipPath>
						<rect x="6" y="0.6" class="st12" width="12.8" height="14"/>
					</g>
				</g>
			</g>
		</g>
	</g>
</g>
<g>
	<defs>
		<path id="SVGID_27_" d="M12.4,19.7V21h5.7v-1.4c1.2-0.9,1.9-2.3,1.9-3.8c0-2.6-2.1-4.8-4.8-4.8c-2.7,0-4.8,2.1-4.8,4.8
			C10.4,17.4,11.2,18.8,12.4,19.7"/>
	</defs>
	<clipPath id="SVGID_28_">
		<use xlink:href="#SVGID_27_"  style="overflow:visible;"/>
	</clipPath>
	<g class="st13">
		<defs>
			<rect id="SVGID_29_" x="-719" y="-138" width="1200" height="844"/>
		</defs>
		<clipPath id="SVGID_30_">
			<use xlink:href="#SVGID_29_"  style="overflow:visible;"/>
		</clipPath>
		<rect x="5.4" y="6" class="st14" width="19.6" height="20"/>
	</g>
</g>
<g>
	<defs>
		<path id="SVGID_31_" d="M12.5,23.1c0.3,0.7,1,1.2,1.8,1.2h1.8c0.8,0,1.5-0.5,1.8-1.2H12.5z"/>
	</defs>
	<clipPath id="SVGID_32_">
		<use xlink:href="#SVGID_31_"  style="overflow:visible;"/>
	</clipPath>
	<g class="st15">
		<defs>
			<rect id="SVGID_33_" x="-719" y="-138" width="1200" height="844"/>
		</defs>
		<clipPath id="SVGID_34_">
			<use xlink:href="#SVGID_33_"  style="overflow:visible;"/>
		</clipPath>
		<rect x="7.5" y="18.1" class="st16" width="15.4" height="11.2"/>
	</g>
</g>
<g>
	<defs>
		<path id="SVGID_35_" d="M12.4,21.7v0.6c0,0,0,0.1,0,0.1h5.7c0,0,0-0.1,0-0.1v-0.6H12.4z"/>
	</defs>
	<clipPath id="SVGID_36_">
		<use xlink:href="#SVGID_35_"  style="overflow:visible;"/>
	</clipPath>
	<g class="st17">
		<defs>
			<rect id="SVGID_37_" x="-719" y="-138" width="1200" height="844"/>
		</defs>
		<clipPath id="SVGID_38_">
			<use xlink:href="#SVGID_37_"  style="overflow:visible;"/>
		</clipPath>
		<rect x="7.4" y="16.7" class="st18" width="15.7" height="10.7"/>
	</g>
</g>
</svg>
