<?xml version="1.0" encoding="utf-8"?>
<!-- Generator: Adobe Illustrator 19.1.1, SVG Export Plug-In . SVG Version: 6.00 Build 0)  -->
<svg version="1.1" id="Layer_1" xmlns="http://www.w3.org/2000/svg" xmlns:xlink="http://www.w3.org/1999/xlink" x="0px" y="0px"
	 viewBox="0 0 39.1 31" style="enable-background:new 0 0 39.1 31;" xml:space="preserve">
<style type="text/css">
	.st0{fill:#FFFFFF;}
	.st1{fill:none;stroke:#ACAFB1;stroke-linecap:round;stroke-linejoin:round;stroke-miterlimit:10;}
	.st2{fill:none;stroke:#ACAFB1;stroke-width:1.074;stroke-linecap:round;stroke-linejoin:round;stroke-miterlimit:10;}
</style>
<g>
	<polygon class="st0" points="0.7,10.6 15.8,7 19.6,6.1 20.8,6.1 21.7,6.7 22.1,7.4 22.3,8.3 22.3,9.1 22.3,9.8 22,10.3 21.7,10.6 
		20.2,10.6 	"/>
	<path class="st0" d="M0.7,10.6h10h10.1c0,0,6.3-0.8,5.5,4.9l0.1,9.8c0,0,1.2,4.7-6.3,4.1H0.7V10.6z"/>
	<g>
		<path class="st1" d="M0.7,10.6l3.5-1.1L20.1,6c1.9,0,2.3,1.6,2.3,3.5v1"/>
		<path class="st1" d="M4.6,10.6H0.7v18.7h22.1c1.9,0,3.5-1.6,3.5-3.5V14.1c0-1.9-1.6-3.5-3.5-3.5h-2.6H4.6z"/>
		<polyline class="st1" points="32.7,1.6 38.5,7.4 32.7,13.2 		"/>
		<line class="st1" x1="37.6" y1="7.4" x2="25" y2="7.4"/>
		<circle class="st2" cx="21.7" cy="19.8" r="1.6"/>
	</g>
</g>
</svg>
